<?xml version="1.0" standalone="no"?>
<!DOCTYPE svg PUBLIC "-//W3C//DTD SVG 20010904//EN"
 "http://www.w3.org/TR/2001/REC-SVG-20010904/DTD/svg10.dtd">
<svg version="1.0" xmlns="http://www.w3.org/2000/svg"
 width="1280.000000pt" height="1024.000000pt" viewBox="0 0 1280.000000 1024.000000"
 preserveAspectRatio="xMidYMid meet">
<metadata>
Created by potrace 1.16, written by Peter Selinger 2001-2019
</metadata>
<g transform="translate(0.000000,1024.000000) scale(0.100000,-0.100000)"
fill="#000000" stroke="none">
<path d="M6752 9973 c-18 -7 -42 -58 -42 -90 0 -18 15 -49 40 -82 40 -53 40
-53 40 -146 0 -51 -9 -144 -20 -206 -11 -63 -23 -135 -27 -161 -6 -46 -7 -48
-38 -48 -63 0 -93 -52 -95 -162 0 -36 1 -37 43 -42 23 -3 110 -15 192 -26 159
-21 223 -24 241 -12 23 15 34 53 34 116 l0 66 -46 0 -46 0 4 55 c3 34 13 66
24 82 35 47 44 41 44 -31 l0 -65 43 -5 c23 -3 65 -7 93 -10 l51 -5 7 87 c4 48
15 141 25 207 l18 120 24 -53 24 -53 74 3 c62 3 76 7 92 27 37 45 15 239 -35
314 -28 41 -51 46 -406 92 -265 34 -330 39 -358 28z"/>
<path d="M5045 9806 c-38 -14 -100 -38 -138 -55 -81 -36 -95 -59 -80 -126 l10
-44 -50 44 c-68 62 -103 61 -279 -5 -154 -58 -172 -73 -165 -139 7 -60 34 -93
91 -109 60 -17 70 -34 135 -221 73 -208 75 -224 40 -311 -36 -88 -36 -100 -3
-139 36 -43 75 -41 221 10 65 23 139 48 165 56 46 14 47 14 41 51 -4 20 -14
61 -23 92 l-17 55 -59 -3 -60 -3 -33 108 c-18 59 -36 117 -38 128 -3 11 70
-55 163 -147 93 -91 184 -174 203 -183 67 -33 200 6 229 68 13 26 9 42 -38
190 -28 89 -78 240 -110 335 -55 163 -57 173 -39 183 25 13 49 61 49 99 0 21
-9 41 -29 61 -37 37 -88 38 -186 5z"/>
<path d="M7883 9778 c-42 -11 -63 -43 -63 -94 0 -30 7 -48 25 -68 13 -14 29
-26 35 -26 17 0 11 -31 -30 -150 -23 -63 -52 -155 -66 -204 -14 -49 -32 -103
-40 -119 -16 -30 -66 -57 -107 -57 -21 0 -26 -7 -35 -42 -6 -24 -14 -66 -18
-94 l-6 -51 48 -7 c27 -4 115 -30 195 -57 154 -52 207 -59 234 -32 44 44 47
116 5 168 -16 21 -30 48 -30 61 0 12 20 76 44 141 52 139 75 217 85 281 l6 47
62 3 c61 3 61 3 77 43 25 62 21 114 -10 138 -15 12 -31 21 -35 21 -5 0 -69 22
-141 49 -148 54 -188 62 -235 49z"/>
<path d="M8605 9457 c-92 -31 -149 -81 -186 -161 -21 -45 -26 -157 -9 -200 11
-29 9 -30 -44 -15 -53 15 -89 -2 -109 -49 -22 -50 -77 -262 -77 -295 0 -14 11
-39 24 -54 21 -24 32 -28 81 -29 51 -1 58 -3 74 -30 67 -109 229 -182 378
-171 175 13 283 122 282 282 0 39 -6 88 -14 110 -19 53 -20 52 15 47 46 -7 78
6 94 36 14 28 76 275 76 303 0 11 -24 25 -69 42 -38 14 -110 53 -160 86 -51
34 -113 71 -139 82 -60 26 -164 33 -217 16z m170 -246 c50 -23 78 -54 104
-111 20 -47 37 -120 28 -120 -18 0 -128 105 -159 151 -66 98 -59 120 27 80z
m-174 -338 c69 -71 129 -159 129 -188 0 -10 -47 -5 -92 10 -51 18 -118 80
-144 133 -19 40 -30 113 -20 137 9 24 30 8 127 -92z"/>
<path d="M4024 9396 c-89 -41 -294 -167 -304 -186 -15 -28 -12 -57 10 -100 24
-46 45 -60 94 -60 58 0 93 -44 197 -247 l93 -183 -12 -58 c-17 -85 -15 -136 6
-155 34 -31 85 -21 227 48 209 100 260 163 205 252 -22 37 -53 48 -113 39
l-42 -6 -17 47 c-10 27 -43 91 -74 143 -97 163 -127 233 -120 282 21 147 21
145 -12 178 -37 37 -69 38 -138 6z"/>
<path d="M3313 8988 c-12 -7 -54 -48 -93 -90 -93 -101 -215 -198 -312 -249
-81 -41 -106 -67 -110 -110 -1 -14 20 -93 47 -177 57 -173 45 -163 175 -139
l65 12 -4 122 c-2 66 0 126 4 133 10 16 51 -24 133 -130 36 -47 89 -112 118
-145 71 -83 75 -94 72 -179 -3 -82 6 -100 58 -122 60 -25 134 13 274 141 105
96 124 126 109 178 -12 43 -41 62 -114 72 -28 4 -62 14 -77 21 -15 8 -72 69
-125 135 -54 66 -120 147 -146 180 -55 66 -54 67 53 44 98 -21 133 -19 169 11
40 33 58 92 42 133 -23 53 -190 154 -279 166 -21 3 -46 0 -59 -7z"/>
<path d="M9501 8965 c-16 -14 -37 -45 -46 -69 -16 -42 -16 -46 1 -74 17 -29
17 -31 -9 -74 -28 -48 -269 -313 -293 -322 -9 -3 -38 -6 -66 -6 -45 0 -54 -4
-89 -39 -32 -31 -39 -46 -39 -77 0 -35 8 -46 106 -141 111 -108 190 -163 237
-163 35 0 83 24 97 49 15 30 12 82 -7 103 -14 16 -15 21 -2 44 24 46 71 84
102 84 30 0 176 -95 176 -115 0 -5 -14 -19 -32 -30 -18 -11 -41 -37 -52 -58
-22 -40 -53 -49 -75 -22 -16 20 -60 19 -88 -1 -20 -14 -72 -101 -72 -122 0 -8
240 -214 302 -259 41 -30 89 -30 124 1 26 21 28 31 33 113 7 105 7 106 143
257 189 210 161 188 227 180 57 -6 59 -6 95 30 30 31 36 44 36 79 0 40 -4 46
-107 146 -134 129 -182 161 -240 161 -81 0 -120 -77 -76 -150 16 -28 16 -30
-11 -64 -47 -62 -77 -67 -139 -24 -32 23 -67 86 -67 122 0 53 53 70 123 41
l36 -15 29 38 c50 63 56 80 43 123 -8 26 -28 51 -64 80 -28 24 -83 72 -121
106 -109 98 -160 114 -215 68z"/>
<path d="M6779 8354 c-166 -51 -238 -195 -225 -444 4 -63 13 -151 21 -195 39
-210 38 -272 -5 -307 -31 -25 -110 -38 -239 -38 -152 0 -244 -18 -444 -87
-371 -127 -646 -296 -929 -570 -93 -91 -143 -133 -159 -133 -44 0 -105 41
-218 145 -132 122 -254 206 -401 278 -133 64 -179 70 -236 30 -92 -64 -86 -54
-69 -111 40 -133 167 -240 470 -397 174 -90 235 -133 276 -195 l29 -44 -117
-22 c-65 -12 -167 -33 -228 -47 -114 -27 -237 -44 -505 -72 -169 -17 -351 -46
-445 -70 -134 -34 -315 -148 -349 -220 -34 -71 11 -129 199 -257 131 -89 174
-126 206 -177 32 -50 37 -82 14 -101 -13 -10 -44 -10 -168 4 -83 9 -164 18
-179 20 -27 2 -28 1 -28 -49 0 -104 45 -195 109 -222 20 -9 90 -19 159 -24
214 -14 421 -65 651 -161 80 -33 192 -75 251 -94 59 -18 125 -47 147 -63 45
-33 55 -54 77 -173 10 -54 37 -123 89 -235 68 -143 97 -217 97 -250 0 -6 -26
-19 -57 -28 -68 -20 -343 -139 -456 -197 -148 -77 -209 -164 -222 -317 l-7
-84 75 6 c151 11 313 89 572 274 120 85 189 123 226 123 37 0 78 -30 132 -98
229 -285 641 -542 1146 -712 102 -35 174 -53 241 -60 147 -16 200 -29 228 -57
24 -24 25 -26 17 -140 -3 -64 -15 -166 -26 -227 -23 -136 -25 -268 -3 -333 20
-62 70 -136 105 -157 63 -37 159 -10 199 56 30 49 34 105 21 287 -15 210 4
486 36 530 27 35 99 58 229 71 112 11 255 47 425 106 133 46 226 90 344 161
104 63 186 106 220 117 28 8 144 114 317 288 92 92 155 148 167 148 11 0 67
-29 123 -65 56 -36 120 -71 140 -77 45 -13 46 -17 18 -154 -46 -227 -155 -508
-252 -656 -33 -49 -66 -105 -74 -124 -15 -35 -15 -36 8 -29 135 42 318 360
384 665 25 119 30 318 9 425 -60 318 -277 531 -675 663 -172 57 -311 81 -735
128 -225 24 -256 26 -490 18 -137 -5 -297 -8 -355 -7 l-105 1 0 -532 c0 -469
-2 -541 -18 -615 -9 -47 -18 -86 -20 -87 -6 -6 -234 27 -322 46 -142 31 -270
76 -410 145 -140 68 -241 136 -381 255 -209 179 -221 196 -188 265 22 47 94
110 169 147 83 42 95 54 95 100 0 31 -8 47 -40 82 -22 23 -57 51 -78 60 l-39
18 -29 -30 c-16 -16 -55 -38 -87 -50 -32 -12 -80 -33 -107 -47 -90 -46 -127
-27 -182 91 -27 59 -59 206 -47 218 2 2 49 0 104 -5 55 -5 155 -12 223 -16 67
-3 122 -10 122 -14 0 -5 25 -25 56 -46 40 -27 76 -65 131 -140 90 -124 119
-150 270 -239 123 -73 208 -142 244 -200 25 -42 48 -39 96 11 36 37 53 88 53
157 0 143 43 290 94 323 18 12 26 26 26 45 0 23 -6 30 -34 40 -41 13 -71 44
-63 65 10 24 65 53 157 83 l85 27 430 1 c362 0 443 3 510 17 104 22 207 56
200 67 -10 17 -112 29 -300 35 -241 9 -279 8 -509 -15 -105 -11 -192 -17 -194
-15 -12 12 32 55 73 71 39 14 65 16 173 10 80 -4 240 0 431 11 329 18 470 13
619 -23 136 -34 77 -60 -130 -58 -71 1 -128 -2 -128 -6 0 -14 69 -61 133 -90
34 -16 116 -43 182 -61 163 -42 541 -161 667 -210 271 -106 449 -240 554 -417
14 -24 24 -46 21 -48 -2 -2 -30 14 -63 36 -32 22 -62 40 -67 40 -12 0 2 -47
44 -146 107 -251 110 -460 14 -795 -45 -155 -94 -280 -223 -569 -165 -370
-240 -564 -282 -728 -10 -39 -13 -42 -38 -36 -63 14 -155 65 -200 112 -86 88
-148 254 -159 424 -6 86 -5 87 24 115 16 15 46 41 67 56 20 16 35 31 32 34 -3
3 -70 -2 -150 -12 -180 -22 -239 -15 -536 62 -118 30 -251 64 -296 74 -84 19
-285 42 -294 33 -2 -3 -6 -67 -8 -143 -7 -248 38 -333 302 -571 276 -249 315
-347 331 -835 7 -218 19 -353 36 -410 8 -28 36 -66 98 -128 96 -99 123 -117
178 -117 35 0 45 8 123 88 55 56 130 153 211 272 168 248 191 289 313 561 330
741 435 966 524 1116 38 65 86 148 106 185 46 85 105 158 145 181 l31 18 0
-27 c0 -24 50 -303 56 -312 7 -11 42 12 58 38 21 37 61 245 80 425 41 373 23
959 -40 1305 -27 148 -84 351 -134 480 -84 213 -184 366 -338 518 -46 46 -90
99 -98 117 -7 19 -21 76 -29 129 -16 98 -33 151 -108 326 -25 58 -52 129 -60
158 l-16 52 45 0 44 0 0 57 c0 114 50 171 214 239 97 41 299 158 365 211 80
67 100 127 61 191 -31 50 -97 76 -190 75 -101 -1 -163 -26 -280 -114 -145
-109 -171 -126 -260 -164 -129 -57 -147 -52 -223 60 -53 79 -184 207 -280 273
-102 70 -274 152 -422 201 -197 64 -702 184 -868 206 -32 4 -59 16 -79 34 -43
38 -47 99 -18 270 35 205 21 411 -41 599 -11 34 -26 62 -32 61 -7 0 -33 -7
-58 -15z m0 -1154 c73 -6 143 -16 155 -23 17 -10 -10 -13 -159 -19 -470 -19
-608 -50 -1080 -248 -121 -50 -242 -101 -270 -112 l-50 -19 48 49 c92 93 252
171 557 270 316 103 493 125 799 102z m281 -222 c48 -30 34 -92 -37 -163 -40
-41 -100 -71 -176 -89 -28 -7 -29 -6 -22 26 30 157 56 220 98 238 28 12 109 5
137 -12z m-513 -25 c11 -27 14 -54 9 -93 -3 -36 2 -96 15 -172 19 -104 20
-122 8 -160 -11 -34 -22 -47 -54 -63 -38 -19 -61 -20 -375 -21 -202 0 -363 -5
-405 -11 -85 -14 -435 -36 -444 -28 -24 25 153 220 272 298 93 62 253 133 387
173 147 43 466 112 528 113 41 1 44 -1 59 -36z m744 -147 c-34 -36 -126 -82
-211 -105 -96 -27 -110 -27 -110 2 0 16 18 34 63 65 58 39 67 42 132 43 39 0
86 6 105 13 44 17 49 12 21 -18z m473 -151 c31 -74 30 -99 -3 -137 -17 -19
-56 -46 -88 -60 -112 -50 -123 -47 -78 20 24 35 24 37 6 40 -11 2 -47 -11 -81
-28 -34 -17 -64 -29 -66 -27 -11 10 52 69 129 122 45 31 97 67 116 81 19 13
38 24 42 24 5 0 15 -16 23 -35z m-1154 -300 c487 -53 598 -68 698 -92 61 -15
112 -31 112 -35 0 -11 -11 -10 -118 7 -51 8 -213 19 -360 25 -147 5 -316 16
-377 25 -118 17 -134 17 -495 -15 -118 -11 -327 -24 -465 -30 -281 -12 -368
-19 -646 -56 -236 -30 -439 -42 -439 -26 0 7 9 12 19 12 11 0 68 15 128 34
112 35 418 89 712 126 384 47 926 58 1231 25z m1580 -24 l0 -29 47 14 c66 20
96 18 122 -10 l22 -23 -38 -6 c-21 -4 -72 -9 -113 -12 -41 -3 -92 -8 -112 -11
-33 -4 -38 -1 -38 15 0 51 37 89 88 90 18 1 22 -4 22 -28z m-988 -142 c98 -19
129 -31 115 -45 -3 -3 -98 -1 -211 6 -180 12 -204 15 -193 28 38 46 97 48 289
11z m-2937 -181 c15 -12 52 -59 81 -105 30 -46 59 -83 64 -83 5 0 23 27 40 60
17 33 33 60 35 60 3 0 54 -16 115 -35 94 -31 133 -37 290 -50 100 -8 184 -16
187 -18 15 -15 -82 -31 -214 -35 -84 -2 -153 -6 -153 -9 0 -2 7 -17 15 -33 21
-41 63 -70 187 -130 119 -58 205 -128 257 -209 44 -67 50 -97 38 -167 -8 -49
-16 -65 -48 -95 -22 -20 -39 -43 -39 -52 0 -21 -6 -22 91 9 72 23 96 26 186
22 84 -3 107 -7 130 -24 34 -26 40 -50 18 -74 -24 -27 -13 -62 37 -117 45 -48
117 -88 262 -147 48 -19 107 -46 129 -60 44 -25 118 -96 101 -96 -29 0 -105
29 -224 85 -113 53 -235 93 -248 80 -13 -12 43 -88 110 -148 68 -62 108 -110
108 -132 0 -3 -16 -5 -35 -5 -19 0 -35 -4 -35 -9 0 -9 45 -74 93 -134 27 -33
52 -97 39 -97 -3 0 -36 18 -73 40 -37 22 -73 40 -79 40 -8 0 -9 14 -5 44 6 39
5 45 -14 51 -12 4 -63 40 -114 81 -51 41 -111 81 -134 90 -29 11 -43 23 -45
38 -3 18 -11 21 -53 24 -55 4 -65 12 -65 57 0 17 -12 57 -25 90 -14 33 -25 66
-25 74 0 8 16 33 35 57 19 23 35 45 35 49 0 12 -64 -7 -113 -33 -50 -27 -91
-71 -122 -132 -13 -25 -14 -35 -6 -38 7 -2 24 -15 39 -28 l27 -23 -165 -1
c-128 0 -183 4 -245 19 -44 11 -118 23 -164 27 -64 5 -89 12 -108 28 l-25 22
73 16 c89 20 292 91 337 118 49 30 64 77 65 195 0 141 -27 207 -143 349 -25
30 -48 55 -52 56 -23 1 -4 -83 39 -174 57 -123 64 -176 33 -258 -45 -120 -176
-208 -322 -216 -100 -6 -154 9 -230 66 -117 86 -155 102 -143 60 4 -13 19 -38
34 -57 14 -18 34 -44 45 -58 l18 -24 -28 7 c-16 4 -82 27 -147 51 -146 55
-240 82 -427 123 -177 40 -238 61 -274 99 l-27 28 78 6 c43 4 152 20 242 37
336 61 436 61 644 -5 137 -44 138 -44 130 -2 -19 100 -119 219 -215 255 -29
11 -54 17 -56 12 -1 -4 7 -31 18 -60 11 -29 19 -54 18 -55 -11 -10 -157 -35
-203 -35 -67 0 -102 14 -180 74 -83 64 -191 118 -331 167 -145 51 -184 70
-234 116 -47 42 -50 53 -12 53 16 0 73 9 128 21 116 25 175 22 314 -16 375
-101 461 -116 584 -101 89 12 99 27 94 142 -3 84 -5 96 -28 118 -14 14 -37 28
-52 31 -25 6 -28 4 -28 -19 0 -21 -5 -26 -25 -26 -35 0 -33 34 4 71 35 35 49
36 86 7z m2505 -178 c185 -10 349 -34 518 -76 159 -39 420 -121 478 -149 52
-26 82 -51 71 -61 -3 -3 -48 0 -101 6 -87 10 -150 23 -501 104 -60 14 -150 32
-200 41 -83 14 -511 69 -648 82 -52 5 -57 8 -43 21 40 40 138 48 426 32z
m1847 -117 c76 -38 162 -110 205 -173 21 -29 38 -58 38 -63 0 -15 -57 0 -128
35 -100 50 -205 153 -226 225 -7 21 -5 21 26 12 18 -5 56 -21 85 -36z m-2336
-283 c352 -18 782 -75 1214 -161 541 -107 861 -228 1210 -456 294 -192 474
-384 560 -596 27 -65 61 -214 51 -224 -11 -11 -62 55 -76 98 -42 133 -140 280
-262 391 -49 45 -96 94 -103 109 -8 15 -28 32 -46 38 -17 6 -59 30 -92 54 -34
25 -89 58 -123 75 -33 17 -74 46 -90 64 -22 25 -46 38 -94 51 -36 10 -114 41
-174 68 -256 117 -568 153 -1001 115 -88 -8 -284 -17 -435 -21 -235 -5 -411
-16 -860 -50 l-74 -6 19 21 c45 50 127 74 290 85 123 9 199 31 241 70 57 54
55 55 -126 79 -167 22 -425 36 -670 36 -204 0 -218 1 -260 23 -24 12 -45 27
-47 32 -4 14 197 74 290 87 65 9 275 23 403 27 28 0 143 -4 255 -9z m1073
-870 c109 -13 156 -33 238 -101 80 -67 116 -82 176 -74 26 4 55 9 64 11 14 4
19 -3 24 -36 8 -47 38 -77 123 -120 82 -41 96 -60 95 -131 -3 -131 -101 -263
-323 -433 -129 -98 -224 -147 -391 -201 -109 -35 -491 -127 -498 -120 -2 2
-10 45 -17 97 -14 101 -21 123 -58 182 l-25 40 24 19 c14 10 31 32 39 48 l16
29 -56 0 c-65 0 -65 3 10 91 25 29 50 70 56 90 10 32 8 44 -20 107 -17 38 -31
76 -31 82 0 6 14 44 31 83 33 74 33 70 13 222 -8 64 17 99 79 113 58 13 322
14 431 2z m-2552 -245 c109 -167 274 -380 376 -487 277 -289 620 -495 915
-549 54 -10 67 -16 67 -31 0 -14 -8 -18 -32 -18 -61 0 -215 38 -299 73 -226
94 -259 111 -259 133 0 17 -8 23 -35 28 -46 9 -116 57 -240 167 -127 112 -422
420 -470 492 -46 67 -134 343 -96 302 4 -6 37 -55 73 -110z m3493 -462 c-9
-39 -53 -92 -110 -133 -26 -19 -103 -76 -170 -127 -161 -121 -240 -171 -371
-237 -248 -123 -441 -175 -747 -200 -49 -4 -57 -2 -47 9 24 29 102 56 222 80
232 44 626 210 862 362 39 25 110 83 158 129 87 84 169 144 196 144 10 0 12
-7 7 -27z m-365 -1430 c0 -4 -9 -26 -20 -49 -35 -72 -128 -117 -276 -133 -43
-5 -80 -8 -82 -6 -2 1 0 37 4 79 l7 76 36 1 c20 0 81 8 136 19 104 19 195 25
195 13z m189 -1162 c6 -41 16 -80 22 -86 7 -7 26 -1 61 18 27 16 52 26 55 23
10 -10 -36 -93 -67 -119 -32 -28 -33 -28 -54 -9 -11 11 -40 29 -63 41 -59 30
-95 81 -122 178 l-9 32 82 -1 83 -1 12 -76z"/>
<path d="M3580 5697 c0 -30 45 -51 177 -83 160 -40 203 -43 203 -15 0 14 -10
20 -38 24 -21 4 -89 22 -152 41 -148 44 -190 51 -190 33z"/>
<path d="M5413 4861 c6 -66 32 -132 71 -178 26 -31 112 -80 123 -70 10 11 -49
167 -80 214 -30 44 -87 93 -110 93 -6 0 -8 -23 -4 -59z"/>
<path d="M2420 8073 c-58 -21 -165 -128 -290 -291 -52 -68 -121 -157 -152
-198 -32 -41 -61 -86 -64 -100 -8 -32 11 -69 50 -97 30 -21 46 -23 151 -15 37
2 51 -6 196 -114 86 -64 166 -130 177 -146 12 -16 26 -57 31 -91 12 -72 22
-88 69 -108 69 -29 106 1 271 225 50 69 61 91 61 123 0 29 -7 47 -25 64 -22
23 -32 25 -115 25 l-91 0 -42 39 c-23 22 -40 41 -37 44 3 2 91 -1 195 -6 105
-6 207 -7 227 -3 25 4 56 24 93 58 142 130 156 278 28 295 -31 4 -52 -1 -99
-25 -59 -30 -99 -36 -210 -33 l-51 1 -5 98 c-7 133 -42 197 -133 245 -54 28
-173 33 -235 10z m101 -306 c20 -44 -23 -148 -76 -183 -21 -14 -30 -15 -56 -4
-39 16 -63 53 -55 83 7 31 64 93 101 112 44 22 74 19 86 -8z"/>
<path d="M10955 6939 c-178 -17 -344 -132 -419 -289 -41 -88 -49 -215 -18
-317 43 -140 152 -267 287 -334 81 -40 199 -69 215 -53 5 5 14 37 21 71 16 79
3 100 -91 148 -38 19 -85 49 -105 66 -102 90 -99 218 10 317 63 59 119 84 197
90 82 6 146 -21 183 -77 43 -65 42 -85 -14 -195 -55 -106 -62 -145 -36 -201
24 -50 88 -70 138 -44 12 7 63 43 115 81 107 79 128 111 111 172 -6 20 -19 51
-29 69 -10 18 -28 68 -40 112 -47 177 -118 274 -252 340 -84 41 -165 54 -273
44z"/>
<path d="M2465 6862 c-16 -2 -52 -10 -79 -18 -58 -17 -273 -19 -471 -5 -71 6
-179 11 -239 13 l-110 3 -33 -80 c-39 -96 -42 -149 -10 -191 12 -17 113 -123
225 -235 235 -239 263 -273 270 -336 5 -43 7 -46 56 -69 65 -30 106 -31 133
-1 12 12 45 68 74 124 66 128 76 197 36 237 -33 33 -102 36 -140 6 l-26 -20
-15 22 c-44 63 3 175 87 207 l27 11 0 -54 0 -54 62 -21 c98 -33 110 -30 132
32 10 28 45 108 77 176 67 141 75 193 37 228 -26 23 -50 30 -93 25z"/>
<path d="M1219 5933 c-12 -3 -22 -33 -38 -113 -36 -179 -52 -291 -45 -314 12
-39 37 -56 178 -125 78 -38 149 -77 159 -88 17 -20 16 -20 -85 -27 -152 -10
-250 -25 -276 -42 -33 -22 -48 -63 -73 -205 -30 -168 -33 -203 -20 -228 17
-31 68 -54 106 -47 37 7 85 50 85 76 0 23 42 19 259 -26 91 -19 193 -37 228
-40 l63 -7 0 -52 c0 -61 6 -65 101 -65 79 0 92 17 119 155 11 60 23 142 27
182 l6 73 -26 0 -27 0 35 45 c59 78 58 150 -2 191 l-32 22 38 6 c21 3 45 14
55 25 21 24 66 236 73 352 6 87 6 87 -22 105 -38 25 -165 33 -165 11 0 -8 -9
-26 -21 -41 -18 -23 -28 -26 -80 -26 -57 0 -304 48 -379 74 -25 8 -42 24 -58
54 -13 24 -34 49 -45 56 -23 14 -110 26 -138 19z"/>
<path d="M11250 5823 c-51 -8 -156 -45 -198 -70 -220 -129 -285 -430 -150
-697 80 -158 229 -246 418 -246 152 0 277 48 364 140 92 96 136 212 136 360 0
194 -101 383 -248 463 -88 48 -216 68 -322 50z m253 -341 c186 -82 89 -298
-153 -342 -147 -27 -270 31 -287 133 -14 90 94 205 214 227 70 13 176 4 226
-18z"/>
<path d="M10994 4501 c-17 -10 -38 -34 -47 -54 -50 -104 15 -227 120 -227 96
0 153 56 153 149 0 59 -18 100 -56 130 -36 28 -126 29 -170 2z"/>
</g>
</svg>
