<?xml version="1.0" standalone="yes"?>
<svg xmlns="http://www.w3.org/2000/svg" width="847" height="847">
<path style="fill:#26395d; stroke:none;" d="M446 94C437.143 94.1056 438 99.5429 438 107C445.334 107.579 452.713 108.691 460 109.729C462.613 110.101 466.99 111.481 469.142 109.357C471.774 106.759 470.998 101.345 471 98L465 98C465.003 92.9067 464.37 87.7784 470 86L470 95C474.037 95.5101 477.92 95.9888 482 96C482.078 86.6104 484.263 77.3433 485 68C487.011 70.6269 488.175 72.7984 489 76C492.181 75.9737 496.841 76.3687 499.397 74.0617C502.842 70.9509 499.328 56.7118 496.987 53.314C494.745 50.0616 489.488 50.2628 486 49.8449C476.317 48.685 466.685 47.0377 457 45.9498C453.578 45.5654 447.704 43.5624 445.514 47.3179C441.324 54.5018 448.56 55.5551 449.512 61.108C451.189 70.8878 447.242 84.17 446 94M321 73C318.643 70.6516 316.142 67.4338 313 66.1212C308.324 64.1677 301.367 68.3624 297 69.946C294.063 71.0111 288.81 71.6229 287.788 75.1443C287.076 77.5963 288.422 82.4374 290.563 83.9375C292.625 85.3818 295.296 84.3907 297.16 86.4074C299.148 88.5577 300.132 92.2844 301.062 95C303.164 101.134 306.429 108.539 307.092 114.982C307.597 119.895 299.218 126.227 306.513 130.933C308.95 132.505 312.552 130.944 315 130.164C321.034 128.24 326.906 125.667 333 124C332.586 119.843 331.158 116.002 330 112C327.314 112.501 324.73 112.883 322 113C321.048 106.554 317.399 100.433 317 94C321.924 99.5611 327.502 104.542 332.69 109.856C335.692 112.93 338.981 117.189 343.001 118.933C346.446 120.427 354.98 118 356.879 114.581C358.679 111.34 355.403 106.154 354.475 103C351.034 91.319 347.369 79.3438 343 68C348.011 65.8732 350.322 58.0346 343.736 55.6281C338.646 53.7681 329.711 58.5529 325.005 60.429C323.289 61.1128 321.101 61.838 320.068 63.4993C318.425 66.1404 320.375 70.2667 321 73M523 71C521.001 78.4782 517.888 85.5735 515.742 93C514.721 96.5289 514.033 101.727 511.276 104.397C509.36 106.253 506.452 105.971 504 106C503.071 110.063 502.089 113.806 502 118C508.278 118.629 515.086 120.982 521 123.193C524.015 124.32 528.437 126.637 531.686 125.218C534.134 124.148 535.501 119.582 535.022 117.129C534.446 114.176 530.917 113.191 530.927 109.946C530.937 106.407 533.215 102.299 534.366 99C536.643 92.4716 539.561 84.891 540 78L548 78C549.057 75.0653 551.647 70.6166 549.731 67.5602C548.441 65.501 545.158 64.8774 542.999 64.2824C537.719 62.8275 526.65 56.4644 521.394 58.6436C514.985 61.301 517.25 69.8 523 71M482 66C478.975 65.4379 476.078 65.0636 473 65C472.895 69.3099 472.657 72.1913 468 73L469 62C473.4 62.556 479.291 62.1658 482 66M329 72C330.06 75.6652 331.361 79.2399 332 83C327.764 81.0231 324.977 78.236 323 74L329 72M558 106C555.406 105.407 551.173 103.394 548.702 105.068C545.792 107.039 545.191 112.871 544.371 116C542.73 122.264 537.816 131.553 547.956 132.608C549.324 132.75 550.692 132.281 552 132C560.003 149.112 591.592 152.191 596.471 130.999C597.709 125.622 595.904 120.943 594 116C596.31 116.542 599.281 117.521 601.437 115.968C603.218 114.685 603.726 111.98 604.265 109.999C605.695 104.742 606.899 99.3357 608 94C604.606 92.2934 600.492 91.5742 597.326 89.5849C590.149 85.0766 585.243 79.7287 576 79.2099C561.586 78.4008 551.246 93.0203 558 106M290 128C287.537 117.235 278.037 108.664 275.587 98.0394C274.357 92.7026 280.754 88.6423 274.467 83.618C272.172 81.7842 269.441 82.5634 267 83.6489C261.429 86.1268 256.327 89.8096 250.99 92.7462C248.423 94.1585 245.251 95.5617 245.836 99.0432C246.286 101.716 248.388 105.383 251.13 106.157C253.402 106.798 255.504 105.696 257.502 107.447C261.708 111.134 264.582 120.062 267.35 125C269.013 127.969 271.625 131.449 272.324 134.816C273.09 138.506 266.791 149.081 275.34 150.211C277.646 150.516 280.058 148.774 282 147.777C287.187 145.115 298.177 141.203 300.918 135.787C302.465 132.732 300.128 127.687 296.872 126.732C294.662 126.084 292.077 127.359 290 128M590 112C583.762 108.428 576.401 101.223 575 94C585.214 94.5314 589.565 102.474 590 112M192 162C196.186 161.902 199.916 160.692 204 160C203.983 153.838 202.868 148.12 204 142C209.635 146.222 213.609 152.326 217.885 157.834C220.275 160.913 223.651 163.816 225.454 167.286C228.138 172.451 222.181 177.179 229.044 181.353C235.013 184.982 246.175 172.686 250.42 168.985C252.449 167.216 255.313 165.055 254.744 161.997C253.221 153.809 245.727 157.781 241.286 154.553C237.704 151.95 234.961 147.415 232.197 144C228.137 138.985 223.574 134.381 220 129C224.642 129.013 232.921 132.636 236.87 130.872C240.082 129.437 243.186 123.897 240.968 120.63C238.278 116.67 226.808 110.346 222.005 110.361C217.627 110.375 215.809 114.751 213.157 117.485C208.113 122.684 201.275 128.586 194.989 132.204C191.364 134.292 186.28 135.146 185.368 140.001C184.846 142.778 186.548 145.527 187.469 148.039C189.148 152.618 190.513 157.357 192 162M561 110C567.158 115.269 576.501 122.79 578 131C567.457 133.027 556.726 120.207 561 110M625 120C626.803 121.945 627.528 123.203 626.139 125.835C623.402 131.018 617.953 135.609 614.091 139.999C611.856 142.54 609.59 145.926 606.674 147.738C604.135 149.316 601.751 147.988 599.093 148.713C596.38 149.453 592.861 153.035 593.113 156.039C593.311 158.387 595.338 160.164 596.931 161.675C600.991 165.528 610.007 175.9 616 175.718C621.734 175.545 625.257 168.117 620 165C620.658 163.525 621.157 162.303 622.132 160.995C628.914 151.906 632.667 160.008 640 164L640 166C636.462 167.778 634.548 170.398 633 174L630 174C625.608 167.219 619.958 176.258 619 181C624.672 185.048 630.032 189.849 635.31 194.424C637.282 196.134 640.177 199.347 643.075 198.978C652.471 197.782 646.615 187.944 649.537 183.286C653.049 177.687 658.352 173.022 662.689 168.086C664.658 165.844 666.623 162.382 669.311 160.951C671.726 159.666 673.719 161.645 676.13 161.13C679.081 160.5 682.794 156.3 682.211 153.145C681.789 150.858 679.441 149.172 677.829 147.715C673.623 143.914 665.112 133.522 659.09 133.748C652.889 133.98 651.405 141.98 656 145C654.537 147.203 652.635 150.834 649.829 151.539C642.633 153.346 633.678 137.583 644.013 137.008C645.882 136.905 648.249 138.421 650 139C652.035 136.59 655.847 133.542 655.168 129.997C654.357 125.76 649.174 122.933 646.171 120.349C640.72 115.661 632.743 104.923 626.724 115.069C625.768 116.68 625.412 118.207 625 120M256 244C258.066 259.191 278.885 268.91 291.075 274.925C297.559 278.125 305.838 282.629 308 290C296.326 291.018 284.717 295.184 273 296.711C255.848 298.945 238.919 299.576 222.039 303.73C215.307 305.387 207.886 309.414 202.734 314.043C200.961 315.636 198.817 317.449 198.448 319.949C197.903 323.64 201.655 326.289 204.018 328.449C210.229 334.126 218.54 337.632 224.211 343.746C226.067 345.748 228.613 349.479 227.79 352.413C227.019 355.164 223.049 354.242 220.999 354.046C214.659 353.439 208.375 352.132 202 352C202.016 357.822 202.655 364.863 207.836 368.682C211.812 371.613 219.308 370.715 224 371.17C233.752 372.114 243.689 374.647 253 377.671C260.552 380.124 267.588 384.06 275.09 386.49C280.022 388.087 287.635 389.534 291.258 393.559C294.293 396.931 293.924 403.784 295.383 408C298.748 417.723 305.651 426.642 307 437C300.028 438.044 293.416 441.697 287 444.526C277.634 448.656 264.422 452.871 259.799 463.039C257.788 467.464 258.001 472.261 258 477C272.907 476.99 284.594 469.071 296.464 460.906C300.887 457.863 310.388 449.606 316.039 450.309C320.782 450.898 323.384 456.337 326.296 459.485C333.045 466.78 341.555 474.559 349.87 479.988C368.08 491.879 386.294 499.916 407 506.385C414.076 508.596 423.115 507.484 429.771 510.6C434.272 512.707 432.062 520.076 431.997 524C431.791 536.297 425.649 548.062 431.04 560.385C432.854 564.532 436.475 570.514 441.855 569.668C451.547 568.144 452.431 558.665 451.424 551C450.134 541.17 450.282 529.818 451.576 520C451.981 516.925 451.489 512.843 453.603 510.317C457.93 505.149 470.841 506.516 476.996 504.856C489.495 501.487 501.441 498.017 513 492.023C520.29 488.243 528.074 481.969 536 480C537.729 477.068 540.487 475.561 543 473.275C548.418 468.349 553.603 463.453 558.638 458.138C560.745 455.914 563.208 451.462 566.676 451.442C568.521 451.432 570.5 453.326 572.015 454.218C576.852 457.066 581.44 460.922 587 462C584.954 478.108 579.65 494.372 572.5 508.924C569.732 514.558 565.013 519.021 563 525C571.726 522.566 579.152 508.145 582.699 500.246C593.474 476.249 595.957 443.318 573.537 424.59C553.881 408.17 528.578 404.169 504 401.83C492.621 400.747 481.465 398.867 470 399.004C458.069 399.146 445.916 401.407 434 400C434 422.618 434.804 445.399 433.981 468C433.807 472.784 432.053 477.16 432 482C403.334 479.738 377.459 471.369 356.13 451.012C352.571 447.614 347.342 444.91 344.731 440.624C340.527 433.72 351.723 426.227 356.714 423.87C358.453 423.048 360.876 422.155 361.968 420.465C365.145 415.55 356.016 408.676 352 408C349.94 411.564 346.759 412.383 343 413.787C339.858 414.961 335.46 418.263 332.093 418.007C328.981 417.77 327.223 414.36 325.921 411.961C322.766 406.15 322.001 401.525 322 395C331.74 395.006 341.23 397 351 397C350.62 394.01 350.267 390.895 349.251 388.039C348.507 385.949 346.457 383.575 347.121 381.235C347.771 378.943 350.569 376.856 352 375C344.701 375.4 338.354 381.164 336 388C338.513 389.037 339.617 389.683 341 392C333.408 392.058 325.565 392.721 318 391.816C313.941 391.33 310.067 389.819 306 389.289C300.86 388.62 295.841 390.152 293 385C300.697 384.022 307.832 381.572 315 378.64C317.373 377.67 321.219 376.526 322.825 374.416C324.434 372.302 324.583 368.551 324.83 366C326.051 353.391 319.954 345.68 312 337C310.61 343.806 318.861 351.458 318.737 359C318.477 374.878 300.156 383.777 286 379.15C280.12 377.228 276.837 371.648 271 370C272.012 374.887 276.025 376.687 278 381C271.147 379.82 264.58 376.481 258 374.228C250.299 371.592 241.969 369.849 234.015 368.155C228.313 366.941 219.926 365.362 217 360C234.282 359.246 250.319 352.872 268 354.09C275.839 354.629 282.587 357.885 290 360C289.365 350.569 280.978 342.054 272 340C273.186 342.717 274.431 345.068 275 348C269.149 349.375 262.084 351.614 256 349.941C252.352 348.937 249.732 345.852 246.715 343.76C242.496 340.835 237.518 338.189 232.715 336.366C224.842 333.377 212.358 330.89 208 323C216.269 322.806 223.476 318.824 232 320.26C247.955 322.948 265.311 332.127 281.852 328.4C285.323 327.618 284.994 323.828 284.998 320.999C285.008 315.267 284.492 310.516 278 310L278 313L274 313C274.273 311.658 274.344 310.246 275.178 309.079C282.448 298.915 288.076 317.264 292 320C293.24 317.185 295.18 314.986 296 312C301.674 312.512 306.367 315.644 312 316.562C320.647 317.97 329.423 317.408 338 319C329.975 323.206 320.813 322 312 322C314.479 329.478 325.284 331.633 331.33 335.529C336.605 338.927 344.449 346.464 345.397 352.965C345.861 356.14 344.097 359.716 344 363C341.052 363.968 340.184 365.141 339 368C342.404 367.764 344.806 366.193 348.039 365.414C352.197 364.413 357.771 364.617 361.996 365.188C366.913 365.853 371.585 369.507 366 373C369.974 388.837 395.903 386.819 403 400C391.688 399.639 382.615 389.538 371 389C373.373 397.665 383.868 399.718 386 408L381 408C383.1 414.352 389.313 416.389 390 424C385.29 423.03 382.545 419.289 378 418L379 413C371.278 409.951 366.357 401.189 358 400L358 397L352 397C354.101 400.042 357.84 400.898 360.286 403.765C365.355 409.703 367.711 415.891 374.478 420.647C383.554 427.024 394.803 430.292 400 441C405.539 439.802 407.776 434.37 407.981 428.985C408.275 421.272 408.271 409.043 416 405L416 402C414.949 401.709 413.857 401.504 412.845 401.074C408.456 399.211 407.249 396.448 412.024 393.978C416.317 391.758 423.209 389.611 428 389.108C451.788 386.613 478.305 393.804 501 384C494.412 381.21 486.042 382.08 479 381.996C474.981 381.948 471.009 380.928 467 381.104C455.979 381.589 445.007 383.527 434 384C436.852 374.519 449.577 377.908 457 377.996C480.199 378.272 503.295 372.74 526 380L526 382C518.68 384.052 511.532 383 504 383C510.841 391.133 526.267 392.621 535.911 395.831C562.48 404.675 595.067 410.758 608 439C603.955 437.875 601.649 434.829 598 433C598.57 437.645 600.873 440.854 602.548 445.09C605.43 452.378 607.448 462.194 606.911 470C604.079 511.157 577.29 544.592 568 584C552.812 581.418 546.369 571.219 543.039 557C542.079 552.901 540.715 546.257 541.889 542.13C542.951 538.396 548.031 537.309 550 534C541.911 534.986 534.372 536.85 526.039 535.871C505.607 533.471 487.004 524.014 466 524C465.842 531.645 464.263 539.472 466.698 547C471.949 563.227 490.3 571.593 499.434 585.325C509.064 599.801 506.705 619.538 507.911 636C508.336 641.795 508.171 650.235 510.857 655.486C512.12 657.955 514.739 659.902 516.714 661.781C519.44 664.375 522.883 669.295 526.926 669.577C530.778 669.846 534.016 665.439 536.424 662.985C544.052 655.212 548.883 645.688 555.341 637.079C562.666 627.315 567.607 614.211 572.651 603.089C581.308 584.005 589.779 564.951 598.679 546C601.479 540.038 605.186 534.727 608.384 529C612.446 521.727 616.009 512.683 624 509C624.506 516.616 627.011 524.341 628 532C632.953 530.258 632.981 522.673 633.985 518C637.105 503.477 638 487.812 638 473C638 439.505 635.971 407.009 621.974 376.039C617.946 367.127 611.539 358.555 605.089 351.235C602.664 348.484 599.267 346.585 597.239 343.482C593.86 338.311 594.705 331.67 592.907 326C589.793 316.18 584.239 307.039 582 297L588 297C588 293.425 587.516 289.35 589.314 286.104C592.541 280.279 599.365 278.573 604.911 276.046C609.773 273.831 614.53 270.963 619.075 268.166C623.331 265.546 633.673 259.634 631.392 253.275C629.289 247.41 622.473 245.766 617 246.044C603.747 246.718 596.351 259.065 584.999 263.633C581.748 264.942 575.888 268.729 572.394 266.88C569.336 265.261 567.258 260.061 565.005 257.416C561.068 252.795 555.765 247.721 550.907 244.09C535.055 232.243 514.914 227.112 496 222.475C487.126 220.299 477.945 218.454 469 216.517C465.186 215.691 459.506 216.303 457.028 212.581C453.427 207.173 457.262 195.97 457.83 190C459.125 176.404 457.51 164.7 453 152C430.546 154.753 432.631 178.957 435.615 196C436.452 200.782 439.445 211.294 435.397 215.258C431.545 219.028 419.129 217.939 414 218.004C404.785 218.121 394.693 222.065 386.001 225.025C369.697 230.579 353.701 239.955 340.285 250.665C335.398 254.567 330.8 258.78 326.428 263.25C324.414 265.31 322.422 268.577 319.741 269.806C313.052 272.871 303.868 261.09 299.37 257.289C292.011 251.071 283.799 245.586 275 241.664C272.066 240.357 268.323 238.275 265.019 238.488C261.406 238.722 259.063 242.448 256 244M172 213C179.383 213 186.622 214.003 194 214C196.862 213.999 200.266 214.415 202.87 212.976C209.154 209.505 221.411 194.399 208.914 190.977C205.22 189.965 202.318 193.528 198.961 194.442C194.288 195.714 188.805 195 184 195C184 190.225 184.853 184.479 182.91 180.001C178.821 170.573 166.576 167.615 158.004 172.699C150.029 177.429 145.327 186.393 139.521 193.285C136.291 197.118 133.164 200.988 130.176 205.015C128.808 206.857 126.598 209.177 126.817 211.671C127.057 214.41 131.631 217.687 134.171 217.992C136.882 218.317 139.067 216.087 141.83 216.927C144.777 217.823 147.604 220.757 150.004 222.59C154.833 226.278 161.169 229.837 165.087 234.529C168.95 239.154 164.458 246.412 172.975 248.154C175.818 248.735 177.865 246.677 179.572 244.695C183.349 240.309 186.886 235.378 190.329 230.714C191.87 228.626 193.985 225.913 192.839 223.174C190.159 216.769 184.702 220.002 180.004 219.637C176.176 219.34 173.456 216.196 172 213M162.995 189.673C171.823 187.654 166.017 203.221 160.87 204.546C157.957 205.296 153.558 202.032 153.917 198.911C154.334 195.294 159.564 190.458 162.995 189.673M461 232C440.951 232 420.225 232.452 401 238.938C389.361 242.865 378.448 248.297 366.961 252.445C362.676 253.993 359.669 256.676 355 257C361.266 248.354 373.205 243.125 383 239.576C400.119 233.374 416.611 228 435 228C440.76 228 446.279 228.507 452 228.911C455.809 229.179 458.78 228.575 461 232M468 232C465.954 232.751 465.404 232.656 464 231L468 232M506 239C503 243.514 497.105 247.234 492 249L491 248C493.632 241.597 499.369 239.156 506 239M350 282C350.895 276.633 355.277 273.349 358.849 269.54C371.766 255.766 392.111 249.917 410 245.986C414.988 244.89 420.042 244.162 425 243C427.236 242.476 430.337 241.441 432.397 243.032C435.227 245.218 433.995 251.883 434 255C434.012 262.189 441.122 276.604 429.946 278.772C416.101 281.457 401.028 277.583 387 279.424C374.927 281.01 362.187 282 350 282M451 261C451.307 256.377 453.061 247.143 456.139 243.603C458.485 240.906 466.927 241.662 468.932 244.589C470.484 246.854 468.842 250.042 467.525 251.982C463.589 257.778 457.673 260.133 451 261M729 312C729.708 308.903 731.835 304.413 729.958 301.418C728.342 298.842 724.525 298.156 722.004 296.815C716.328 293.795 710.985 287.891 712.282 281C714.732 267.976 736.109 258.6 744.392 271.669C749.846 280.275 738.644 286.115 739.436 294C740.066 300.279 745.68 302.758 750.424 299.227L756.004 295.08C758.599 293.16 762.492 290.885 763.868 287.829C765.799 283.54 760.972 278.984 760.05 274.961C758.835 269.661 757.605 263.858 754.394 259.325C741.858 241.626 717.509 242.513 703.146 257.3C682.782 278.266 703.014 310.867 729 312M104 252C102.648 256.185 98.4005 262.378 99.6829 266.826C100.73 270.458 105.417 274.124 108.004 276.729C114.153 282.921 120.204 289.185 126.241 295.486C130.765 300.209 134.499 303.035 134 310C136.788 311.159 140.736 313.959 143.867 313.184C146.288 312.585 147.238 310.041 148.21 308.035C150.352 303.611 156.349 295.401 154.215 290.302C152.162 285.399 144.829 285.464 143 290C136.009 284.758 141.265 274.207 149 273L149 280C152.798 281.446 155.867 282.808 160 283C162.272 276.855 165.017 270.586 167.931 264.714C169.264 262.026 171.52 258.332 170.353 255.225C167.495 247.609 157.906 253.785 152.999 253.981C136.792 254.626 120.269 252 104 252M485 252C482.152 259.516 468.36 262.912 461 264L461 260C463.983 258.675 466.23 255.641 469.289 254.678C471.753 253.903 474.388 255.079 476.91 254.687C479.718 254.25 482.179 252.56 485 252M491 257C491.182 258.551 491.201 270.199 487.012 265.338C485.337 263.394 486.002 259.365 486 257L491 257M513 262C513.975 264.889 516.152 268.667 515.578 271.787C514.645 276.862 504.447 280.408 500 281C500.806 278.146 502.183 276.34 504 274C499.381 274.616 496.284 277.519 492 279C493.673 273.181 498.951 271.455 503.561 268.127C506.771 265.809 509.151 263.115 513 262M129 272L128 276C126.086 274.394 125.163 273.217 124 271L129 272M531 281C529.606 285.786 518.856 290.593 514 291C515.886 284.99 525.046 281.193 531 281M491 292L491 294C485.444 293.996 480.447 292.347 475 292.043C464.371 291.451 453.606 291.759 443 290.907C436.497 290.384 430.663 288.748 424 289.039C412.29 289.552 400.684 291.11 389 291.911C375.035 292.867 360.94 292.777 347 294.171C331.016 295.769 315.069 299 299 299L299 297C304.931 296.465 310.106 293.309 316 292.324C337.167 288.787 358.505 284.981 380 284.039C400.756 283.131 423.431 282.251 444 285.208C455.26 286.827 466.697 287.665 477.985 289.188C482.595 289.81 486.185 291.947 491 292M542 284L542 288C546.696 286.511 553.009 284.002 555 290C548.14 291.273 540.956 291.451 534 292C534.19 286.16 536.16 284.19 542 284M486 299C475.69 299.814 466.283 298.001 456 298C458.72 290.263 472.081 294.964 478 295.83C481.318 296.316 483.895 296.234 486 299M555 304L557 313L548 312C548.283 306.856 549.668 304.412 555 304M575 318C570.065 316.446 568.821 311.767 568 307C574.022 307.96 574.568 312.585 575 318M80 313C78.5646 319.958 77.0376 326.977 76.0039 334C75.6137 336.651 74.6438 340.085 76.1937 342.526C77.6292 344.787 80.7377 345.772 83.0008 346.941C88.7522 349.912 95.7582 351.979 100 357C93.3875 357.004 86.5502 357.518 80 358.425C77.6958 358.744 74.5642 358.793 72.8573 360.603C69.7429 363.905 69.6492 371.706 68.919 376C68.3564 379.308 65.9039 385.399 68.0424 388.436C71.9031 393.918 79.554 390.724 80 385C92.4599 385.536 104.614 390.434 117 391L117 398C120.037 398.564 124.673 400.011 127.436 397.972C129.472 396.47 129.73 393.278 130.199 391C131.488 384.733 132.497 378.378 133 372L129 372C134.639 366.25 138.652 357.381 128 355C130.32 354.304 134.198 354.374 135.836 352.397C137.394 350.514 137.525 347.307 137.919 345C138.771 340.004 140.09 335.028 140.71 330C140.956 328.004 141.304 325.319 139.972 323.6C137.886 320.907 132.066 321.132 129 321C128.549 323.163 128.206 325.433 125.772 326.228C119.67 328.223 108.213 324.196 102 323C99.5847 322.535 96.3944 322.422 94.3171 320.987C91.9045 319.32 92.1686 315.917 89.6829 314.318C86.9774 312.578 83.0634 313.008 80 313M276 323L276 326C269.821 325.995 266.23 325.993 266 319L276 323M520 339C506.325 338.962 492.263 334.682 479 331.593C464.256 328.159 449.041 326.358 434 324.829C428.571 324.278 423.504 323.015 418 323C421.978 316.858 435.49 319 442 319C462.393 319 481.83 323.294 501.17 329.638C507.432 331.692 516.227 333.14 520 339M744 320.514C734.945 322.338 726.843 326.44 721.746 334.425C711.899 349.852 718.11 376.067 735.001 383.954C742.201 387.316 750.359 387.514 758 385.88C791.17 378.784 788.977 327.338 757 320.518C752.896 319.642 748.108 319.686 744 320.514M587 344C577.891 343.39 563.31 333.606 562 324C571.185 325.337 584.496 334.866 587 344M237 328C238.048 331.582 240.607 331.603 244 332.454C249.744 333.893 256.102 335.907 262 336L262 334C253.539 333.445 245.616 328.548 237 328M745 341.329C750.324 340.377 758.807 339.928 763.38 343.228C775.412 351.911 762.786 363.619 753 365.384C747.098 366.449 739.502 366.808 734.768 362.401C726.148 354.377 736.321 342.883 745 341.329M125 345L125 352C118.141 350.777 112.426 346.468 106 344C111.41 342.06 119.149 344.984 125 345M617 442C610.801 439.297 611.617 434.414 608.866 429.015C605.923 423.239 601.875 416.881 597.29 412.275C593.519 408.486 587.617 405.197 586 400C581.206 399.305 578.66 396.069 574.729 393.55C570.289 390.704 563.83 389.359 562 384C553.381 383.558 546.86 378.509 539 375.7C529.486 372.299 518.058 370.778 508 370.09C495.733 369.249 484.092 371.063 472 371.91C458.366 372.866 444.627 372.156 431 373.09C417.05 374.045 402.98 375.711 389 376C397.049 363.317 420.912 374.179 428 361C409.395 357.472 390.059 357 371 357C365.352 357 354.262 358.435 352 352C358.02 350.763 363.914 347.943 370 347.185C407.088 342.568 445.574 347.353 482 353.679C509.128 358.391 537.827 364.637 562.17 378.088C585.854 391.176 615.697 411.742 617 442M121 371L120 376C113.632 375.982 107.259 375.163 101 374C106.74 371.423 114.732 371.129 121 371M358 380C358.079 388.811 361.757 397.485 371 400C368.785 392.814 365.954 382.195 358 380M520 414C520.074 416.246 519.969 418.541 521.603 420.314C525.608 424.66 534.768 424.655 534.887 432.019C535.068 443.237 525.211 453.491 516.924 459.519C512.516 462.726 508.439 466.679 503.576 469.211C487.886 477.383 470.979 480.117 454 484C452.045 479.367 453.018 474.588 451.412 470.039C450.381 467.12 448.075 464.942 447 462C449.797 460.27 451.064 459.158 452 456L445 456C446.451 450.896 452.653 448.133 453.337 442.826C453.901 438.458 449.585 435.326 449.817 431.015C450.055 426.604 453.972 423.698 453.785 418.999C453.63 415.083 450.452 408.929 453.607 405.589C457.293 401.687 466.197 403 471 403C478.942 403 487.347 402.328 494.999 404.912C500.761 406.857 503.878 412.527 509.129 414.569C512.291 415.798 516.655 414.095 520 414M731.015 406.549C718.828 409.219 722.353 428.516 734.986 425.605C747.233 422.783 743.397 403.836 731.015 406.549M312 411C315.293 413.988 316.665 417.956 319.224 421.525C324.989 429.568 330.74 437.876 337.1 445.49C354.123 465.869 381.172 485.384 408 489L408 492C399.671 491.977 391.692 489.948 384 486.772C378.702 484.585 373.588 481.267 368 480L368 477C361.406 476.035 355.967 470.442 350.985 466.252C343.455 459.917 337.031 452.82 330.234 445.781C323.536 438.845 316.676 432.699 314.687 423C313.857 418.957 310.881 415.079 312 411M558 423L563 424C562.459 428.884 559.852 434.348 555 436C555.462 431.713 556.836 427.125 558 423M555 426C553.46 430.88 548.675 432.027 544 433C544.742 424.007 547.584 425.057 555 426M595.667 431.333C595.222 431.778 596.278 431.722 596.333 431.667C596.778 431.222 595.722 431.278 595.667 431.333M550 448C548.686 457.803 539.146 460.761 532.459 466.4C510.145 485.214 481.385 497 452 497C456.246 490.187 469.834 490.984 477 488.406C495.048 481.913 511.903 475.046 527.907 464.421C534.981 459.724 541.341 448.987 550 448M552 533C554.543 532.474 555.535 532.122 557 530C554.457 530.526 553.465 530.878 552 533M502 538L502 542C496.542 541.821 489.734 537.298 488 532C494.088 532.284 496.791 535.689 502 538M525 544C524.71 555.969 508.752 557.58 499 558C499.467 554.305 499.969 550.735 500 547C508.76 547 516.219 544 525 544M522 571C520.151 579.695 514.864 576.249 509 574L509 570C514.533 568.868 516.819 568.51 522 571M530 595C528.88 600.453 525.569 603.577 520 604C520.801 598.362 523.983 594.012 530 595M537 616C537.015 620.325 537.716 623.884 539 628C541.815 626.76 544.014 624.82 547 624C546.282 628.94 543.939 633.46 539 635C536.851 631.065 533.646 631.736 530.589 629.062C527.874 626.688 525.696 619.494 525 616C529.437 616.714 532.595 617.293 537 616M526.318 713.086C522.56 715.256 525.924 721.083 529.682 718.914C533.44 716.744 530.076 710.917 526.318 713.086M192 713L192 718C202.867 723.699 195.209 743.824 210 744C211.107 739.943 212.629 736.222 213 732L215 732C215.181 734.071 215.424 736.001 216.044 738C217.245 741.873 221.943 747.059 225.362 741.682C229.898 734.55 227.889 722.363 236 718L236 713L224 713C224.437 719.875 224.853 724.371 222 731C220.134 726.784 219.154 722.447 218 718C221.054 717.346 220.936 715.993 221 713L208 713L208 718C214.626 722.057 209.604 729.94 209 736C205.986 730.797 203.732 723.977 203 718L206 718L206 713L192 713M336 713.532C324.521 716.267 319.773 731.227 328.471 739.646C332.657 743.699 339.475 744.746 345 743.471C354.68 741.236 360.738 729.47 355.312 720.443C351.573 714.223 342.728 711.93 336 713.532M519 735C513.193 733.705 509.591 739.44 504.005 738.461C489.89 735.99 497.617 711.189 508.851 720.409C510.47 721.738 511.128 723.176 512 725L517 725C516.937 721.963 517.227 717.055 515.012 714.642C513.39 712.876 510.151 713.485 508 713.336C500.164 712.791 492.659 713.839 489.228 722.001C485.695 730.406 490.563 742.111 500 743.772C508.161 745.209 514.429 741.466 519 735M619 713L619 718L623 718L623 739L619 739L619 744L632 744L632 739L628 739L628 720C629.897 725.559 631.339 731.326 632.885 736.999C633.427 738.988 634.011 742.484 636.31 743.248C638.83 744.086 639.844 740.698 640.405 738.981C642.362 732.998 644.453 726.262 645 720C646.778 726.014 646 732.757 646 739L642 739L642 744L657 744L657 739L653 739L653 718L657 718L657 713L643 713C641.75 719.042 639.504 724.826 639 731C636.779 725.199 635.255 719.082 634 713L619 713M661 713L661 718L665 718C665 724.422 667.412 735.464 661 739L661 744C672.94 744 691.098 746.358 692.863 730C693.307 725.878 691.49 722.026 691 718C688.256 716.619 686.017 714.457 682.982 713.613C676.264 711.747 667.934 713 661 713M288 721L288 727L291 727C291 734.561 289.642 744.054 299.995 743.87C302.018 743.834 304.02 743.367 306 743L306 738C297.751 739.268 298.001 733.701 298 727L305 727L305 722L298 722L298 714C293.822 715.284 291.834 719.045 288 721M538 727L541 727C541 734.406 539.853 743.974 549.995 743.867C552.015 743.846 554.024 743.367 556 743L556 738C547.752 739.268 548.001 733.701 548 727L555 727L555 722L548 722L548 714C542.363 714.969 538.415 721.562 538 727M339.015 718.488C351.532 716.582 352.377 737.505 341.011 738.833C330.283 740.085 328.678 720.062 339.015 718.488M672 738L672 719C674.998 719.008 678.878 718.555 681.501 720.318C687.142 724.109 685.39 733.522 680.25 736.721C677.78 738.259 674.79 737.99 672 738M260 739C256.221 735.43 254.358 738.924 250.019 738.124C247.225 737.609 246.094 735.268 245 733L260 733C259.31 722.723 244.471 717.02 238.688 727.133C234.68 734.143 239.174 742.769 247.001 743.786C252.114 744.45 256.142 742.02 260 739M279 739C273.773 738.758 269.25 736.363 264 737C264.921 739.643 266.893 745.256 270 742C274.657 744.24 289.586 744.219 284.953 735.105C282.718 730.708 276.281 729.395 272 728C276.503 727.117 280.457 729.237 285 728C283.018 721.886 278.112 721.154 272.001 722.232C268.44 722.86 264.404 725.833 265.662 729.946C267.265 735.188 275.303 735.738 279 739M384 739C380.07 735.357 377.341 739.783 373.133 737.864C369.965 736.419 367.87 729.922 372.218 728.496C374.131 727.868 385.349 735.358 383.248 727.11C382.248 723.182 376.407 721.96 373 722.073C364.021 722.37 357.155 731.97 363.514 739.867C364.929 741.624 366.84 742.814 369.001 743.427C371.253 744.066 373.736 744.001 376 743.466C379.177 742.716 381.513 741.006 384 739M410 739C406.26 735.533 404.297 739.074 400.019 738.174C397.237 737.59 396.102 735.286 395 733L410 733C408.939 722.741 395.228 717.138 388.938 727.105C384.844 733.593 388.531 742.341 396.004 743.67C401.61 744.666 405.797 742.442 410 739M420 731C416.469 733.91 412.007 741.456 419.133 743.562C422.227 744.476 424.972 742.864 428 742.714C431.601 742.536 435.31 743.959 439 744L439 739C432.349 735.333 437.918 726.06 430.891 722.858C427.147 721.152 420.723 721.701 417.434 724.228C413.469 727.276 416.335 730.388 420 731M442 724L442 729L445 729L445 739L442 739L442 744L455 744L455 739L452 739L452 728C459.594 727.608 458.999 732.796 459 739L456 739L456 744L469 744L469 739L466 739C466 731.904 467.552 720.927 457.005 722.341C454.954 722.616 452.962 723.378 451 724C448.58 721.468 445.145 723.283 442 724M522 724L522 729L525 729L525 739L522 739L522 744L535 744L535 739L532 739L532 722L522 724M558 722C558.757 731.992 569.661 738.263 566 749C564.326 748.308 562.209 747.066 560.318 747.732C556.633 749.03 559.654 752.927 562.059 753.548C565.114 754.336 568.172 752.982 570.15 750.656C574.28 745.796 576.312 738.615 579.262 733.004C581.279 729.169 583.665 726.421 584 722L558 722M253 729L245 729C247.855 726.087 250.464 725.501 253 729M403 728C400.387 729.098 397.836 728.993 395 729C397.773 726.256 399.505 726.423 403 728M428 730L420 731C422.334 727.269 426.146 724.423 428 730M576 727L573 735L571 735L568 727L576 727M428 734C427.331 737.855 425.793 738.723 422 738C423.556 735.15 424.793 734.497 428 734M594 744C592.402 746.303 591.073 748.419 590 751L594 752C594.929 749.998 596.126 748.05 596.928 745.995C597.41 744.761 597.875 743.355 597.758 742.005C596.805 730.932 583.555 740.827 594 744M369 776C371.064 786.047 373.111 795.596 371.71 806C371.368 808.536 368.234 814.943 370.617 816.917C375.379 820.864 377.972 808.288 378.384 806C380.349 795.082 379.092 784.325 373 775L369 776M269 819C271.129 818.214 273.147 817.572 273.228 814.891C273.352 810.716 271.121 806.328 271.015 802C270.787 792.749 272.907 784.961 274 776C267.712 776.497 265.886 781.305 264.669 787C262.242 798.358 265.011 808.545 269 819M278 799L293 799L293 808L300 808L300 799L306 799L306 794L300 794L300 776C288.616 776.134 278.039 787.905 278 799M314 779L314 784L320 784L320 803L314 803L314 808L333 808L333 803L327 803L327 776L314 779M348.001 776.558C330.723 781.087 336.808 812.472 355.999 807.442C366.811 804.608 369.558 787.225 362.235 779.51C358.953 776.052 352.392 775.407 348.001 776.558M400 790C405.163 788.877 404.841 784.23 409.109 782.047C412.912 780.102 418.183 783.647 416.673 788.001C413.624 796.788 400.77 798.228 400 808C408.421 808 416.644 807.944 425 809L427 797L422 797C419.711 801.151 416.421 800.984 412 801C415.984 797.701 421.451 795.222 424.231 790.7C428.427 783.876 422.983 777.502 416 776.265C406.49 774.579 400.211 781.026 400 790M435 779L435 784L441 784L441 803L435 803L435 808L454 808L454 803L448 803L448 776L435 779M462 787L467 787C467.663 785.625 468.057 784.276 469.316 783.277C474.332 779.299 481.499 785.024 474.981 788.397C473.797 789.01 472.268 788.904 471 789L471 794L480 795C479.905 796.229 480.014 797.714 479.397 798.856C473.668 809.447 466.899 792.306 461.622 797.623C457.987 801.285 464.074 805.52 467.001 806.713C471.977 808.742 479.479 808.736 483.941 805.436C489.308 801.467 488.621 794.95 483 792C484.214 788.893 486.504 785.494 485.238 782.055C480.985 770.494 462.758 776.174 462 787M507 790C512.083 788.894 511.885 784.359 516.109 782.198C520.415 779.996 525.382 784.18 523.253 788.714C519.442 796.832 508.421 798.513 507 808C515.421 808 523.644 807.944 532 809L534 797L529 797C526.711 801.151 523.421 800.984 519 801C522.623 798.216 527.957 795.907 530.697 792.214C535.226 786.11 531.637 778.95 525 776.703C519.557 774.86 513.047 776.63 509.434 781.105C507.277 783.776 507.079 786.722 507 790M542 784L548 784L548 803L542 803L542 808L561 808L561 803L555 803L555 776C549.267 776.843 542.535 777.287 542 784M584 795C581.025 801.225 575.516 802.716 569 803L569 808C577.022 807.978 586.414 806.621 590.911 798.982C597.37 788.007 589.89 774.621 577 776.186C568.619 777.203 561.341 788.298 569.499 794.852C573.752 798.268 579.491 796.91 584 795M600 777L599 793C604.943 791.897 610.056 792.531 616 793C616.112 794.195 616.477 795.825 616.257 797.04C614.596 806.206 607.839 800.434 603.576 797.618C601.456 796.218 598.581 796.341 597.712 799.145C596.372 803.472 601.647 806.389 605.001 807.362C614.137 810.013 631.359 801.008 621.347 790.638C619.693 788.925 617.291 787.892 614.999 787.39C611.777 786.685 608.279 787 605 787L605 784L622 784L622 776C614.626 776.932 607.433 777 600 777M351.1 781.582C360.162 780.371 360.781 801.788 352.025 802.454C343.973 803.066 343.423 782.608 351.1 781.582M578.058 781.662C584.254 779.737 587.146 789.331 580.942 791.342C574.384 793.467 571.694 783.64 578.058 781.662M293 784L293 794L284 794C286.015 789.678 289.125 786.732 293 784M490 794L490 799L502 799L502 794L490 794z"/>
</svg>
