<?xml version="1.0" standalone="no"?>
<!DOCTYPE svg PUBLIC "-//W3C//DTD SVG 1.1//EN" "http://www.w3.org/Graphics/SVG/1.1/DTD/svg11.dtd"><svg xmlns="http://www.w3.org/2000/svg" style="background-color:#FFF" width="847" height="847"><path stroke="black" fill="none" stroke-width="1" d="M454.07, 45.47L455.61, 45.74L457, 45.95L471.5, 47.87L486, 49.84L488.87, 50.11L491.96, 50.52L493.45, 50.9L494.81, 51.46L496.01, 52.25L496.99, 53.31L497.44, 54.07L497.9, 55.05L498.84, 57.55L499.69, 60.55L500.36, 63.8L500.77, 67.03L500.8, 69.99L500.65, 71.28L500.38, 72.42L499.96, 73.35L499.4, 74.06L498.35, 74.81L497.14, 75.33L494.43, 75.89L491.61, 76.01L489, 76L488.31, 73.77L487.44, 71.78L486.36, 69.91L485, 68L484.23, 75L483.25, 81.98L482.4, 88.98L482, 96L475.98, 95.69L470, 95L470, 86L468.17, 86.82L466.84, 87.91L465.94, 89.24L465.39, 90.76L465.1, 92.43L464.99, 94.23L465, 98L471, 98L471.08, 100.82L471.06, 103.96L470.89, 105.5L470.54, 106.96L469.98, 108.26L469.14, 109.36L468.24, 110L467.17, 110.36L465.99, 110.51L464.74, 110.48L462.23, 110.13L460, 109.73L449.02, 108.19L438, 107L437.98, 104.3L438, 101.84L438.2, 99.64L438.68, 97.74L439.58, 96.19L441.01, 95.03L441.97, 94.6L443.11, 94.28L444.45, 94.08L446, 94L446.58, 90.17L447.31, 86.09L448.85, 77.54L449.47, 73.22L449.85, 68.99L449.89, 64.93L449.51, 61.11L448.9, 59.22L447.9, 57.62L445.58, 54.82L444.69, 53.37L444.24, 51.72L444.25, 50.78L444.44, 49.75L444.86, 48.6L445.51, 47.32L446.5, 46.17L447.75, 45.47L449.21, 45.13L450.8, 45.08Z"/><path stroke="black" fill="none" stroke-width="1" d="M343.74, 55.63L344.87, 56.14L345.8, 56.76L346.54, 57.48L347.1, 58.28L347.72, 60.04L347.72, 61.92L347.17, 63.79L346.16, 65.51L344.74, 66.96L343, 68L346.15, 76.61L349.09, 85.37L354.48, 103L354.92, 104.27L355.5, 105.68L356.7, 108.76L357.15, 110.32L357.39, 111.85L357.33, 113.28L356.88, 114.58L355.88, 115.81L354.39, 116.91L352.56, 117.85L350.52, 118.6L348.41, 119.11L346.36, 119.36L344.51, 119.32L343, 118.93L341.53, 118.17L340.12, 117.21L337.46, 114.89L335, 112.33L332.69, 109.86L324.75, 102.02L320.8, 98.08L317, 94L317.29, 96.4L317.82, 98.78L319.29, 103.5L320.87, 108.22L321.53, 110.6L322, 113L326.02, 112.64L330, 112L331.78, 117.94L332.52, 120.93L333, 124L328.47, 125.4L323.98, 126.99L315, 130.16L312.98, 130.83L310.75, 131.43L308.52, 131.59L307.48, 131.38L306.51, 130.93L305.32, 130.03L304.46, 129.1L303.9, 128.13L303.6, 127.15L303.52, 126.14L303.62, 125.11L304.26, 123.04L306.19, 118.89L306.91, 116.88L307.09, 114.98L306.73, 112.53L306.17, 110L304.62, 104.88L302.8, 99.8L301.06, 95L300.34, 92.81L299.51, 90.49L298.48, 88.27L297.16, 86.41L296.43, 85.78L295.63, 85.37L293.94, 84.96L292.2, 84.65L290.56, 83.94L289.8, 83.23L289.13, 82.28L288.11, 79.9L287.62, 77.34L287.61, 76.16L287.79, 75.14L288.36, 73.95L289.25, 73L290.38, 72.23L291.68, 71.62L294.47, 70.71L297, 69.95L298.75, 69.25L300.68, 68.41L304.88, 66.71L307.03, 66.06L309.14, 65.67L311.15, 65.66L313, 66.12L315.24, 67.42L317.29, 69.17L321, 73L320.36, 70.73L319.68, 68.21L319.43, 65.71L319.61, 64.55L320.07, 63.5L321.03, 62.41L322.28, 61.6L325.01, 60.43L326.95, 59.61L329.2, 58.63L334.23, 56.63L336.81, 55.84L339.32, 55.33L341.66, 55.22Z"/><path stroke="black" fill="none" stroke-width="1" d="M526.24, 58.4L529.15, 59.09L532.19, 60.1L538.13, 62.48L540.77, 63.53L543, 64.28L544.78, 64.76L546.69, 65.37L548.44, 66.26L549.16, 66.85L549.73, 67.56L550.25, 68.77L550.42, 70.07L550.3, 71.43L549.98, 72.83L548.99, 75.56L548, 78L540, 78L539.73, 80.61L539.25, 83.27L537.87, 88.64L536.15, 93.93L534.37, 99L533.34, 101.6L532.22, 104.38L531.31, 107.21L530.93, 109.95L531.08, 111.07L531.48, 112.02L532.75, 113.65L534.14, 115.22L534.68, 116.11L535.02, 117.13L535.12, 118.14L535.05, 119.28L534.45, 121.69L533.94, 122.84L533.31, 123.85L532.55, 124.66L531.69, 125.22L530.42, 125.58L529.07, 125.66L526.26, 125.16L523.48, 124.18L521, 123.19L516.42, 121.54L511.64, 120L506.79, 118.77L502, 118L502.22, 114.93L502.69, 111.95L504, 106L505.9, 106L507.84, 105.88L509.68, 105.43L511.28, 104.4L512.22, 103.29L512.99, 101.99L514.16, 99.02L515, 95.89L515.74, 93L517.5, 87.48L519.43, 82.02L521.32, 76.55L523, 71L521.02, 70.23L519.42, 68.94L518.28, 67.26L517.64, 65.37L517.57, 63.4L518.13, 61.53L518.67, 60.67L519.39, 59.89L520.29, 59.21L521.39, 58.64L522.44, 58.33L523.61, 58.2Z"/><path stroke="black" fill="none" stroke-width="1" d="M472.51, 62.32L476.13, 62.77L477.86, 63.2L479.44, 63.84L480.84, 64.75L482, 66L477.52, 65.31L473, 65L472.83, 67.95L472.6, 69.21L472.21, 70.31L471.6, 71.25L470.73, 72.01L469.55, 72.6L468, 73L469, 62Z"/><path stroke="black" fill="none" stroke-width="1" d="M330.66, 77.46L332, 83L329.08, 81.36L326.65, 79.35L324.64, 76.92L323, 74L329, 72Z"/><path stroke="black" fill="none" stroke-width="1" d="M579.28, 79.62L582.22, 80.42L584.92, 81.53L587.44, 82.9L592.27, 86.14L597.33, 89.58L599.85, 90.87L602.58, 91.9L605.35, 92.87L608, 94L606.26, 102.03L604.27, 110L603.85, 111.59L603.32, 113.25L602.55, 114.77L601.44, 115.97L600.59, 116.44L599.69, 116.7L597.78, 116.77L595.83, 116.44L594, 116L595.36, 119.67L596.41, 123.34L596.87, 127.08L596.8, 129.01L596.47, 131L595.94, 132.91L595.26, 134.69L593.49, 137.83L591.24, 140.43L588.59, 142.5L585.61, 144.07L582.37, 145.14L578.94, 145.73L575.41, 145.86L571.84, 145.54L568.3, 144.79L564.88, 143.62L561.64, 142.04L558.66, 140.08L556.01, 137.74L553.76, 135.04L552, 132L550, 132.46L547.96, 132.61L546.23, 132.32L544.82, 131.85L543.72, 131.22L542.89, 130.45L542.3, 129.55L541.93, 128.54L541.75, 126.26L542.11, 123.73L542.81, 121.09L543.64, 118.47L544.37, 116L544.67, 114.71L544.98, 113.25L545.75, 110.1L546.27, 108.57L546.91, 107.17L547.71, 105.98L548.7, 105.07L549.7, 104.6L550.83, 104.42L553.3, 104.68L555.8, 105.37L558, 106L556.93, 103.55L556.24, 101.09L555.92, 98.64L555.94, 96.22L556.28, 93.87L556.93, 91.61L557.86, 89.45L559.06, 87.43L560.51, 85.58L562.19, 83.91L564.08, 82.45L566.16, 81.23L568.41, 80.27L570.81, 79.6L573.35, 79.23L576, 79.21Z"/><path stroke="black" fill="none" stroke-width="1" d="M272.68, 82.7L273.59, 83.05L274.47, 83.62L275.5, 84.55L276.27, 85.46L276.8, 86.36L277.12, 87.24L277.26, 88.98L276.92, 90.71L275.78, 94.24L275.44, 96.09L275.59, 98.04L276.81, 101.94L278.53, 105.69L280.57, 109.35L282.79, 112.97L285, 116.59L287.05, 120.27L288.77, 124.06L290, 128L293.39, 126.88L295.16, 126.57L296.87, 126.73L298.04, 127.27L299.1, 128.12L299.99, 129.21L300.7, 130.47L301.18, 131.83L301.4, 133.22L301.32, 134.56L300.92, 135.79L299.53, 137.75L297.54, 139.57L295.1, 141.26L292.38, 142.81L286.76, 145.54L284.19, 146.72L282, 147.78L278.81, 149.48L277.08, 150.1L275.34, 150.21L273.91, 149.89L272.79, 149.38L271.95, 148.69L271.37, 147.85L271.01, 146.88L270.83, 145.82L270.91, 143.47L271.36, 141.01L271.92, 138.62L272.32, 136.49L272.39, 135.58L272.32, 134.82L271.49, 132.28L270.2, 129.76L268.73, 127.31L267.35, 125L266.3, 122.98L265.23, 120.69L262.97, 115.75L261.74, 113.32L260.43, 111.05L259.02, 109.06L257.5, 107.45L256.75, 106.92L255.98, 106.6L254.42, 106.39L252.8, 106.38L251.13, 106.16L250.13, 105.74L249.21, 105.09L247.62, 103.31L246.47, 101.17L245.84, 99.04L245.78, 97.83L246.03, 96.79L246.53, 95.89L247.23, 95.12L249.02, 93.84L250.99, 92.75L258.91, 88.03L262.9, 85.7L267, 83.65L268.87, 82.93L270.79, 82.54Z"/><path stroke="black" fill="none" stroke-width="1" d="M576.85, 94.18L578.56, 94.54L581.59, 95.7L584.12, 97.42L586.17, 99.63L587.76, 102.26L588.91, 105.24L589.65, 108.51L590, 112L587.62, 110.5L585.22, 108.7L582.88, 106.64L580.69, 104.37L578.72, 101.93L577.06, 99.36L575.79, 96.7L575, 94Z"/><path stroke="black" fill="none" stroke-width="1" d="M224.09, 110.64L226.62, 111.4L229.41, 112.56L232.28, 114L235.05, 115.64L237.55, 117.35L239.58, 119.05L240.97, 120.63L241.56, 121.95L241.72, 123.41L241.49, 124.93L240.96, 126.44L240.16, 127.86L239.18, 129.13L238.06, 130.15L236.87, 130.87L235.2, 131.3L233.22, 131.33L231.02, 131.06L228.69, 130.6L224.04, 129.55L221.9, 129.16L220, 129L222.84, 132.91L225.92, 136.64L232.2, 144L234.28, 146.72L236.43, 149.58L238.74, 152.29L241.29, 154.55L243.08, 155.46L245.05, 155.93L249.11, 156.42L250.99, 156.89L252.62, 157.83L253.32, 158.55L253.91, 159.46L254.39, 160.6L254.74, 162L254.8, 163.1L254.59, 164.13L254.16, 165.09L253.56, 165.97L252.03, 167.58L250.42, 168.99L249.55, 169.77L248.53, 170.73L246.13, 172.99L243.36, 175.48L240.38, 177.92L237.31, 180.01L235.79, 180.84L234.31, 181.47L232.87, 181.88L231.5, 182.02L230.22, 181.85L229.04, 181.35L227.9, 180.56L227.03, 179.76L226.39, 178.95L225.97, 178.12L225.6, 176.43L225.68, 174.69L226.18, 171.08L226.1, 169.2L225.45, 167.29L223.85, 164.78L221.89, 162.41L219.82, 160.12L217.88, 157.83L211.45, 149.43L207.95, 145.48L206.04, 143.67L204, 142L203.52, 146.53L203.57, 150.98L203.83, 155.45L204, 160L198.04, 161.22L195.07, 161.74L192, 162L189.81, 155L187.47, 148.04L185.88, 144.12L185.35, 142.08L185.37, 140L185.89, 138.36L186.75, 137.03L187.86, 135.95L189.16, 135.06L192.08, 133.62L194.99, 132.2L199.77, 129.11L204.54, 125.44L209.07, 121.47L213.16, 117.49L215.04, 115.22L216.93, 112.9L217.98, 111.9L219.15, 111.1L220.48, 110.56L222.01, 110.36Z"/><path stroke="black" fill="none" stroke-width="1" d="M563.44, 112.08L566.04, 114.35L568.69, 116.8L571.25, 119.4L573.59, 122.14L575.58, 125L577.09, 127.96L578, 131L576.02, 131.21L574.07, 131.1L572.15, 130.69L570.29, 130.01L568.52, 129.08L566.86, 127.94L565.33, 126.6L563.94, 125.09L562.73, 123.44L561.72, 121.66L560.93, 119.8L560.37, 117.87L560.08, 115.9L560.07, 113.92L560.37, 111.94L561, 110Z"/><path stroke="black" fill="none" stroke-width="1" d="M634.08, 111.04L635.37, 111.49L636.66, 112.15L639.21, 113.94L641.68, 116.12L644.02, 118.36L646.17, 120.35L648.73, 122.35L651.49, 124.55L652.76, 125.76L653.84, 127.07L654.67, 128.47L655.17, 130L655.22, 131.3L654.93, 132.56L654.37, 133.77L653.6, 134.92L651.76, 137.08L650, 139L648.59, 138.43L647.05, 137.75L645.49, 137.19L644.01, 137.01L642.3, 137.29L641, 137.87L640.1, 138.72L639.55, 139.78L639.33, 141L639.41, 142.33L639.76, 143.74L640.35, 145.17L641.14, 146.56L642.1, 147.89L643.21, 149.09L644.43, 150.11L645.73, 150.92L647.09, 151.46L648.46, 151.68L649.83, 151.54L650.84, 151.15L651.77, 150.53L653.42, 148.83L654.81, 146.85L656, 145L654.56, 143.66L653.67, 142L653.32, 140.17L653.5, 138.33L654.18, 136.61L655.34, 135.18L656.99, 134.17L657.98, 133.88L659.09, 133.75L660.25, 133.83L661.45, 134.13L663.97, 135.3L666.56, 137.07L669.14, 139.22L671.64, 141.57L673.97, 143.9L676.06, 146.01L677.83, 147.71L680.47, 150.12L681.57, 151.54L682.21, 153.15L682.24, 154.37L681.92, 155.64L681.32, 156.89L680.5, 158.08L679.5, 159.16L678.41, 160.06L677.26, 160.74L676.13, 161.13L674.39, 161.14L672.72, 160.75L671.06, 160.51L670.2, 160.61L669.31, 160.95L667.42, 162.35L665.73, 164.21L664.18, 166.23L662.69, 168.09L655.8, 175.44L652.46, 179.24L649.54, 183.29L649.09, 184.22L648.81, 185.25L648.62, 187.53L648.73, 192.43L648.48, 194.72L648.15, 195.75L647.64, 196.68L646.91, 197.48L645.93, 198.15L644.66, 198.66L643.08, 198.98L641.99, 198.96L640.92, 198.66L638.85, 197.48L636.95, 195.91L635.31, 194.42L627.3, 187.51L623.2, 184.16L619, 181L619.57, 179.06L620.51, 176.95L621.74, 174.91L623.21, 173.18L624.84, 171.98L625.7, 171.66L626.56, 171.57L627.44, 171.72L628.31, 172.16L629.16, 172.91L630, 174L633, 174L634.25, 171.48L635.75, 169.32L637.63, 167.49L640, 166L640, 164L637.41, 162.35L635.07, 160.57L632.91, 158.9L630.86, 157.59L628.83, 156.9L627.8, 156.86L626.75, 157.07L625.67, 157.56L624.55, 158.35L623.37, 159.49L622.13, 160.99L620.95, 162.93L620, 165L620.88, 165.63L621.57, 166.35L622.4, 167.97L622.56, 169.72L622.12, 171.46L621.17, 173.07L619.78, 174.41L618.03, 175.34L616, 175.72L614.84, 175.63L613.63, 175.32L611.06, 174.14L608.4, 172.37L605.74, 170.21L603.17, 167.86L600.78, 165.52L598.67, 163.39L596.93, 161.68L594.5, 159.17L593.57, 157.7L593.11, 156.04L593.19, 154.89L593.56, 153.73L594.18, 152.6L594.99, 151.53L596.98, 149.75L598.05, 149.12L599.09, 148.71L601.04, 148.48L602.93, 148.55L604.79, 148.45L605.73, 148.2L606.67, 147.74L608.75, 146.12L610.64, 144.14L614.09, 140L617.22, 136.66L620.54, 133.21L623.64, 129.62L624.99, 127.75L626.14, 125.83L626.56, 124.91L626.8, 124.09L626.77, 122.66L626.13, 121.36L625, 120L625.66, 117.47L626.72, 115.07L627.87, 113.4L629.06, 112.19L630.29, 111.39L631.54, 110.95L632.8, 110.85Z"/><path stroke="black" fill="none" stroke-width="1" d="M454.56, 156.72L455.84, 161.38L456.85, 166.02L457.59, 170.66L458.06, 175.35L458.26, 180.11L458.18, 184.98L457.83, 190L457.48, 192.46L456.96, 195.29L455.87, 201.5L455.55, 204.63L455.55, 207.61L456.01, 210.3L456.44, 211.5L457.03, 212.58L458.1, 213.78L459.41, 214.65L460.9, 215.24L462.51, 215.63L465.87, 216.08L469, 216.52L482.53, 219.41L496, 222.48L510.33, 226.14L517.51, 228.23L524.6, 230.58L531.55, 233.27L538.3, 236.37L544.77, 239.95L550.91, 244.09L554.61, 247.05L558.3, 250.38L561.82, 253.89L565.01, 257.42L566.68, 259.78L568.4, 262.53L570.27, 265.09L571.29, 266.12L572.39, 266.88L573.81, 267.33L575.38, 267.34L577.06, 267.01L578.79, 266.44L582.15, 264.95L583.67, 264.22L585, 263.63L589.09, 261.59L592.92, 259.05L600.29, 253.38L604.04, 250.7L608.01, 248.43L610.1, 247.53L612.29, 246.81L614.58, 246.3L617, 246.04L619.1, 246.03L621.26, 246.23L623.4, 246.66L625.46, 247.36L627.36, 248.34L629.03, 249.63L630.39, 251.27L631.39, 253.27L631.68, 254.46L631.69, 255.63L631.47, 256.79L631.03, 257.92L629.62, 260.09L627.68, 262.12L625.44, 263.98L623.12, 265.63L620.92, 267.03L619.08, 268.17L612.11, 272.32L608.54, 274.27L604.91, 276.05L600.59, 277.86L596.24, 279.84L594.2, 281.03L592.33, 282.43L590.68, 284.1L589.31, 286.1L588.74, 287.36L588.35, 288.67L587.98, 291.43L588, 297L582, 297L582.98, 300.73L584.21, 304.39L587.13, 311.58L590.2, 318.74L592.91, 326L593.47, 328.17L593.87, 330.4L594.48, 334.93L595.39, 339.37L596.16, 341.48L597.24, 343.48L598.98, 345.62L601.02, 347.49L603.12, 349.3L605.09, 351.23L609.88, 356.95L614.44, 363.04L618.54, 369.43L620.36, 372.71L621.97, 376.04L624.46, 381.86L626.68, 387.72L628.65, 393.62L630.38, 399.54L631.89, 405.5L633.2, 411.5L635.24, 423.57L636.62, 435.77L637.46, 448.07L637.89, 460.49L638, 473L637.81, 484.24L637.16, 495.61L635.93, 506.92L635.05, 512.5L633.98, 518L633.64, 519.87L633.32, 521.91L632.47, 526.1L631.81, 528.04L630.88, 529.73L629.64, 531.09L628, 532L627.03, 526.25L625.82, 520.48L624.7, 514.73L624, 509L621.2, 510.62L618.76, 512.66L616.62, 515.03L614.72, 517.65L611.41, 523.32L608.38, 529L603.38, 537.41L600.93, 541.63L598.68, 546L585.57, 574.49L572.65, 603.09L568.85, 611.72L564.85, 620.59L562.71, 624.97L560.43, 629.21L557.98, 633.27L555.34, 637.08L550.73, 643.67L546.32, 650.35L541.69, 656.87L539.16, 659.99L536.42, 662.98L534.47, 665.09L532.22, 667.3L530.99, 668.26L529.7, 669.01L528.34, 669.47L526.93, 669.58L525.44, 669.27L524.01, 668.6L522.64, 667.67L521.33, 666.55L518.89, 664.05L516.71, 661.78L513.52, 658.85L512.03, 657.25L510.86, 655.49L509.98, 653.38L509.32, 651.04L508.54, 645.95L508.17, 640.75L508.05, 638.29L507.91, 636L507.6, 629.69L507.43, 623.17L507.24, 616.55L506.83, 609.92L506.03, 603.38L504.65, 597.04L503.69, 593.97L502.51, 590.98L501.1, 588.1L499.43, 585.33L497.62, 582.81L495.62, 580.4L491.2, 575.83L481.61, 567.1L476.96, 562.64L472.74, 557.9L470.89, 555.39L469.24, 552.74L467.83, 549.95L466.7, 547L465.96, 544.16L465.54, 541.31L465.37, 538.43L465.38, 535.54L466, 524L469.91, 524.11L473.77, 524.42L481.37, 525.52L488.84, 527.13L496.23, 529.04L510.99, 533.01L518.45, 534.67L526.04, 535.87L529.13, 536.11L532.16, 536.13L538.11, 535.67L550, 534L549.13, 535.15L548.05, 536.14L545.6, 537.91L543.33, 539.75L542.46, 540.84L541.89, 542.13L541.56, 543.79L541.44, 545.62L541.66, 549.58L542.29, 553.53L543.04, 557L544.44, 562.14L546.21, 566.85L548.4, 571.11L551.07, 574.86L552.62, 576.54L554.31, 578.07L556.15, 579.46L558.16, 580.69L560.34, 581.77L562.7, 582.68L565.25, 583.43L568, 584L569.94, 576.68L572.22, 569.48L574.8, 562.37L577.6, 555.35L583.65, 541.46L589.88, 527.66L595.8, 513.77L598.5, 506.74L600.94, 499.63L603.06, 492.43L604.81, 485.1L606.11, 477.63L606.91, 470L607, 466.99L606.86, 463.84L606.01, 457.35L604.52, 450.96L603.58, 447.93L602.55, 445.09L601.21, 442.07L599.86, 439.2L598.72, 436.25L598, 433L600.53, 434.55L602.85, 436.26L605.24, 437.85L606.56, 438.49L608, 439L605.35, 433.96L602.28, 429.4L598.82, 425.29L595.02, 421.58L590.9, 418.25L586.51, 415.26L581.89, 412.57L577.07, 410.14L572.09, 407.94L566.99, 405.93L556.56, 402.34L546.11, 399.07L535.91, 395.83L532.05, 394.69L527.82, 393.62L518.9, 391.26L514.56, 389.79L510.52, 387.98L506.94, 385.75L505.38, 384.45L504, 383L515.08, 383.27L520.53, 383.02L523.26, 382.63L526, 382L526, 380L521.74, 378.78L517.47, 377.84L513.19, 377.14L508.9, 376.66L500.31, 376.25L491.69, 376.38L474.38, 377.4L465.69, 377.86L457, 378L454, 377.84L450.68, 377.56L447.21, 377.36L443.79, 377.41L440.57, 377.91L439.1, 378.39L437.75, 379.05L436.55, 379.92L435.5, 381.02L434.65, 382.37L434, 384L442.25, 383.42L450.49, 382.56L458.74, 381.69L467, 381.1L470, 381.16L473, 381.47L475.99, 381.81L479, 382L484.48, 381.95L490.17, 381.98L493, 382.16L495.77, 382.52L498.45, 383.12L501, 384L496.7, 385.65L492.32, 386.93L487.87, 387.9L483.36, 388.58L478.8, 389.03L474.2, 389.27L464.91, 389.29L446.25, 388.64L437.04, 388.57L432.49, 388.75L428, 389.11L426.11, 389.37L424.09, 389.77L419.83, 390.9L415.66, 392.35L413.75, 393.15L412.02, 393.98L410.51, 394.92L409.52, 395.87L409.03, 396.82L409, 397.75L409.4, 398.66L410.19, 399.53L411.35, 400.34L412.85, 401.07L416, 402L416, 405L414.64, 405.85L413.45, 406.88L412.42, 408.05L411.53, 409.37L410.14, 412.33L409.2, 415.62L408.61, 419.07L408.27, 422.55L408.09, 425.91L407.98, 428.98L407.81, 431L407.43, 432.97L406.83, 434.84L405.99, 436.56L404.91, 438.09L403.55, 439.37L401.92, 440.36L400, 441L398.96, 439.08L397.78, 437.31L395.1, 434.2L392.03, 431.54L388.69, 429.2L381.56, 425.01L377.97, 422.91L374.48, 420.65L372.13, 418.8L370.12, 416.84L368.35, 414.78L366.75, 412.65L363.69, 408.24L360.29, 403.77L358.25, 401.93L356.01, 400.45L353.84, 398.94L352.86, 398.05L352, 397L358, 397L358, 400L360.98, 400.77L363.72, 402.1L366.28, 403.83L368.74, 405.8L373.64, 409.85L376.22, 411.61L379, 413L378, 418L379.63, 418.59L381.13, 419.34L383.94, 421.12L386.78, 422.83L388.32, 423.52L390, 424L389.5, 421.39L388.6, 419.18L387.4, 417.27L386.03, 415.53L383.2, 412.11L381.96, 410.2L381, 408L386, 408L385.51, 406.52L384.84, 405.16L383.09, 402.76L380.94, 400.63L378.59, 398.64L376.23, 396.64L374.05, 394.46L372.24, 391.96L371.54, 390.55L371, 389L373.15, 389.21L375.25, 389.61L379.31, 390.89L383.25, 392.62L387.11, 394.57L390.97, 396.5L394.86, 398.2L398.85, 399.45L400.9, 399.82L403, 400L401.46, 397.7L399.54, 395.71L397.29, 393.97L394.78, 392.45L392.07, 391.09L389.22, 389.84L383.33, 387.5L377.58, 385.03L374.91, 383.62L372.46, 382.05L370.28, 380.24L368.44, 378.17L366.99, 375.77L366, 373L366.93, 372.34L367.63, 371.69L368.13, 371.04L368.42, 370.4L368.48, 369.17L367.94, 368.03L366.9, 367.03L365.48, 366.2L363.81, 365.57L362, 365.19L358.62, 364.84L354.99, 364.71L351.38, 364.88L348.04, 365.41L345.74, 366.11L343.58, 366.91L341.39, 367.61L339, 368L339.87, 366.15L340.84, 364.79L342.14, 363.79L344, 363L344.32, 360.49L344.91, 357.94L345.39, 355.41L345.4, 352.96L344.74, 350.49L343.54, 347.98L341.92, 345.49L339.99, 343.08L337.85, 340.82L335.62, 338.77L333.41, 336.99L331.33, 335.53L328.87, 334.14L326.11, 332.82L320.33, 330.11L317.61, 328.54L315.22, 326.72L313.29, 324.57L312.56, 323.34L312, 322L318.65, 322.12L325.3, 322.08L328.57, 321.8L331.79, 321.24L334.94, 320.34L338, 319L331.54, 318.15L325.03, 317.71L318.5, 317.31L312, 316.56L307.92, 315.53L304.02, 314.13L300.1, 312.8L298.09, 312.31L296, 312L295.2, 314.11L294.16, 316.06L293.03, 317.98L292, 320L291.24, 319.31L290.45, 318.33L288.74, 315.71L286.87, 312.66L284.84, 309.7L283.77, 308.42L282.66, 307.35L281.51, 306.56L280.32, 306.11L279.09, 306.08L277.83, 306.52L276.52, 307.5L275.18, 309.08L274.68, 310L274.38, 310.97L274, 313L278, 313L278, 310L280.17, 310.39L281.83, 311.13L283.07, 312.2L283.94, 313.54L284.5, 315.14L284.82, 316.93L285, 321L284.99, 323.24L284.73, 325.47L284.37, 326.46L283.81, 327.31L282.98, 327.97L281.85, 328.4L278.74, 328.95L275.62, 329.23L272.48, 329.26L269.33, 329.08L263.02, 328.17L256.71, 326.74L244.19, 323.19L238.04, 321.53L232, 320.26L228.86, 319.96L225.82, 320.06L222.84, 320.44L219.9, 321.02L214.04, 322.29L211.06, 322.77L208, 323L208.91, 324.42L209.99, 325.72L212.59, 328L215.66, 329.91L219.04, 331.52L226.14, 334.13L229.57, 335.26L232.71, 336.37L236.34, 337.88L239.93, 339.65L243.42, 341.63L246.71, 343.76L251.12, 347.26L253.43, 348.85L256, 349.94L258.32, 350.39L260.71, 350.54L263.14, 350.42L265.59, 350.11L270.42, 349.12L275, 348L274.46, 345.9L273.73, 343.92L272, 340L275.33, 341.06L278.51, 342.67L281.47, 344.74L284.13, 347.23L286.39, 350.07L288.18, 353.19L289.41, 356.52L290, 360L284.54, 358.26L279.16, 356.45L273.7, 354.94L270.89, 354.41L268, 354.09L261.44, 353.96L255, 354.39L248.65, 355.23L242.35, 356.31L229.77, 358.59L223.43, 359.48L217, 360L218.34, 361.84L220.09, 363.37L222.17, 364.62L224.47, 365.63L229.36, 367.12L231.77, 367.68L234.01, 368.15L246.1, 370.84L252.12, 372.41L258, 374.23L262.94, 376.07L267.9, 378.02L272.91, 379.76L278, 381L277.17, 379.49L276.22, 378.15L274.14, 375.72L272.24, 373.17L271.51, 371.7L271, 370L273.08, 370.79L274.98, 371.85L278.48, 374.47L282, 377.14L283.91, 378.27L286, 379.15L288.7, 379.86L291.46, 380.26L294.26, 380.37L297.05, 380.19L299.81, 379.72L302.51, 378.99L305.11, 378L307.58, 376.76L309.89, 375.28L312, 373.57L313.88, 371.64L315.5, 369.5L316.83, 367.15L317.84, 364.61L318.48, 361.89L318.74, 359L318.43, 356.17L317.54, 353.34L316.29, 350.52L314.89, 347.72L313.55, 344.96L312.48, 342.25L311.9, 339.59L311.85, 338.29L312, 337L314.89, 340.22L317.53, 343.42L319.88, 346.67L321.86, 350.03L323.4, 353.57L324.46, 357.37L324.96, 361.49L324.83, 366L324.64, 368.09L324.34, 370.37L323.78, 372.57L322.83, 374.42L321.26, 375.83L319.2, 376.96L317, 377.87L315, 378.64L309.62, 380.73L304.2, 382.55L298.68, 384.01L293, 385L294.16, 386.64L295.51, 387.75L297.01, 388.44L298.64, 388.83L302.2, 389.06L306, 389.29L309.02, 389.84L312, 390.57L314.98, 391.29L318, 391.82L323.72, 392.23L329.49, 392.27L341, 392L339.99, 390.54L338.92, 389.52L337.65, 388.74L336, 388L337.06, 385.5L338.47, 383.14L340.17, 380.99L342.15, 379.09L344.35, 377.49L346.75, 376.24L349.31, 375.39L352, 375L350.73, 376.43L349.27, 377.95L347.96, 379.55L347.12, 381.23L346.99, 382.11L347.07, 382.99L347.66, 384.73L348.51, 386.42L349.25, 388.04L349.9, 390.22L350.36, 392.47L351, 397L343.72, 396.69L336.49, 396L329.27, 395.32L322, 395L322.17, 399.59L322.78, 403.75L323.98, 407.78L324.85, 409.83L325.92, 411.96L327, 413.88L328.33, 415.79L330, 417.3L330.99, 417.78L332.09, 418.01L333.4, 417.95L334.78, 417.62L337.63, 416.43L340.44, 414.98L343, 413.79L345.7, 412.79L348.14, 411.7L350.25, 410.21L351.18, 409.21L352, 408L353.71, 408.53L355.7, 409.54L357.76, 410.95L359.68, 412.64L361.27, 414.54L362.32, 416.54L362.57, 417.55L362.62, 418.55L362.42, 419.52L361.97, 420.46L360.93, 421.59L359.58, 422.49L356.71, 423.87L354.59, 424.98L352.14, 426.51L349.62, 428.39L347.27, 430.54L345.36, 432.91L344.64, 434.15L344.13, 435.43L343.85, 436.72L343.83, 438.02L344.12, 439.32L344.73, 440.62L345.82, 442.16L347.11, 443.58L350.08, 446.15L353.21, 448.56L356.13, 451.01L360.18, 454.69L364.34, 458.1L368.6, 461.24L372.95, 464.12L377.4, 466.76L381.95, 469.17L386.59, 471.34L391.31, 473.29L396.13, 475.03L401.02, 476.57L406, 477.91L411.05, 479.07L421.38, 480.85L432, 482L432.31, 478.44L432.95, 474.98L433.61, 471.53L433.98, 468L434.33, 451.02L434.3, 434.01L434, 400L438.48, 400.37L442.97, 400.46L451.99, 400.08L461.02, 399.42L470, 399L478.55, 399.24L487.03, 399.96L504, 401.83L513.24, 402.81L522.47, 404.06L531.62, 405.73L540.61, 407.93L549.38, 410.79L553.65, 412.51L557.84, 414.44L561.93, 416.59L565.91, 418.99L569.79, 421.65L573.54, 424.59L577.45, 428.26L580.81, 432.23L583.63, 436.47L585.94, 440.94L587.77, 445.6L589.13, 450.43L590.05, 455.39L590.57, 460.44L590.69, 465.56L590.45, 470.7L589.86, 475.84L588.97, 480.93L587.78, 485.96L586.32, 490.87L584.62, 495.65L582.7, 500.25L581.19, 503.48L579.35, 507.1L577.21, 510.91L574.79, 514.67L572.13, 518.18L569.26, 521.22L567.75, 522.49L566.21, 523.56L564.62, 524.41L563, 525L563.87, 522.82L564.94, 520.76L567.47, 516.83L570.13, 512.97L572.5, 508.92L575.09, 503.39L577.49, 497.72L579.69, 491.93L581.66, 486.05L583.4, 480.09L584.88, 474.08L586.08, 468.04L587, 462L584.96, 461.47L582.99, 460.73L579.24, 458.77L572.02, 454.22L570.8, 453.41L569.47, 452.49L568.08, 451.75L566.68, 451.44L565.42, 451.64L564.25, 452.18L563.16, 452.98L562.15, 453.96L560.3, 456.16L558.64, 458.14L550.96, 465.85L543, 473.27L539.21, 476.4L537.47, 478.03L536, 480L533.04, 480.93L530.09, 482.18L524.26, 485.33L518.55, 488.83L513, 492.02L508.65, 494.16L504.26, 496.08L495.35, 499.42L486.27, 502.27L477, 504.86L474.4, 505.36L471.35, 505.68L464.61, 506.27L461.28, 506.76L458.22, 507.52L455.6, 508.67L454.51, 509.42L453.6, 510.32L452.93, 511.33L452.45, 512.46L451.95, 514.95L451.77, 517.54L451.58, 520L450.82, 527.6L450.53, 535.5L450.72, 543.39L451.42, 551L451.7, 553.94L451.72, 556.94L451.39, 559.87L450.65, 562.64L449.41, 565.11L447.58, 567.19L446.42, 568.04L445.09, 568.74L443.57, 569.29L441.86, 569.67L439.92, 569.68L438.15, 569.16L436.55, 568.2L435.11, 566.9L433.84, 565.37L432.74, 563.7L431.04, 560.39L430.16, 558.08L429.52, 555.79L429.11, 553.5L428.89, 551.23L428.92, 546.7L429.42, 542.18L431, 533.14L431.68, 528.59L432, 524L432.1, 522.38L432.31, 520.55L432.6, 516.62L432.47, 514.73L432.03, 513.03L431.16, 511.62L429.77, 510.6L427.17, 509.61L424.4, 508.94L418.54, 508.15L412.61, 507.54L409.74, 507.07L407, 506.39L399.35, 503.88L391.9, 501.2L384.63, 498.33L377.5, 495.22L370.49, 491.86L363.57, 488.22L356.7, 484.27L349.87, 479.99L343.63, 475.52L337.5, 470.44L331.66, 465L326.3, 459.48L324.13, 456.81L321.85, 453.94L320.6, 452.64L319.23, 451.55L317.72, 450.74L316.04, 450.31L314.94, 450.28L313.76, 450.44L311.22, 451.24L308.53, 452.55L305.79, 454.2L303.11, 456.03L300.59, 457.87L298.34, 459.55L296.46, 460.91L287.54, 466.86L283.01, 469.58L278.37, 472.01L273.59, 474.06L268.63, 475.63L263.45, 476.64L258, 477L258, 473.44L258.15, 469.9L258.67, 466.42L259.8, 463.04L260.76, 461.2L261.91, 459.49L264.68, 456.44L267.97, 453.8L271.62, 451.52L275.5, 449.52L279.45, 447.73L283.33, 446.09L287, 444.53L296.79, 440.09L301.84, 438.22L304.4, 437.51L307, 437L306.25, 433.18L305.09, 429.47L303.62, 425.84L301.95, 422.26L298.43, 415.18L296.79, 411.61L295.38, 408L294.91, 406.31L294.55, 404.44L293.91, 400.46L293.51, 398.5L292.98, 396.65L292.25, 394.97L291.26, 393.56L289.73, 392.17L287.9, 390.98L285.85, 389.97L283.66, 389.11L279.19, 387.7L277.05, 387.09L275.09, 386.49L269.54, 384.43L264.06, 382.09L258.58, 379.74L253, 377.67L245.91, 375.51L238.67, 373.64L231.34, 372.16L224, 371.17L222.12, 371.05L220.05, 371L215.65, 370.85L213.46, 370.64L211.38, 370.24L209.48, 369.61L207.84, 368.68L206.1, 367.11L204.74, 365.28L203.72, 363.26L202.98, 361.09L202.49, 358.83L202.19, 356.53L202, 352L206.77, 352.29L211.51, 352.84L221, 354.05L222.82, 354.26L224.87, 354.33L225.84, 354.19L226.69, 353.86L227.36, 353.28L227.79, 352.41L227.95, 351.28L227.84, 350.1L227.01, 347.73L225.67, 345.53L224.21, 343.75L221.97, 341.57L219.54, 339.57L214.32, 335.93L209, 332.37L206.44, 330.49L204.02, 328.45L202.07, 326.73L200.14, 324.77L199.35, 323.69L198.76, 322.53L198.43, 321.29L198.45, 319.95L199.02, 318.2L200.06, 316.66L202.73, 314.04L204.77, 312.34L206.98, 310.71L211.79, 307.77L216.91, 305.39L219.49, 304.46L222.04, 303.73L228.37, 302.33L234.71, 301.19L247.42, 299.5L260.18, 298.17L273, 296.71L277.39, 296.03L281.77, 295.16L290.52, 293.16L299.25, 291.26L303.62, 290.52L308, 290L306.92, 287.37L305.36, 284.98L303.4, 282.83L301.16, 280.9L298.71, 279.16L296.15, 277.59L291.08, 274.92L286.15, 272.49L280.74, 269.69L275.16, 266.5L269.74, 262.9L267.19, 260.94L264.79, 258.87L262.6, 256.69L260.64, 254.39L258.96, 251.98L257.6, 249.44L256.6, 246.78L256, 244L258.19, 242.52L260.3, 240.75L262.52, 239.23L263.72, 238.73L265.02, 238.49L267.56, 238.71L270.15, 239.51L272.67, 240.59L275, 241.66L281.49, 244.89L287.72, 248.62L293.69, 252.78L299.37, 257.29L301.26, 259.04L303.51, 261.28L306.03, 263.73L308.73, 266.12L311.54, 268.19L314.37, 269.68L315.76, 270.11L317.13, 270.3L318.46, 270.21L319.74, 269.81L321.63, 268.55L323.33, 266.84L324.91, 264.97L326.43, 263.25L333.16, 256.74L340.29, 250.66L345.43, 246.72L350.8, 242.92L356.35, 239.31L362.06, 235.91L367.91, 232.75L373.87, 229.87L379.91, 227.28L386, 225.02L392.75, 222.7L399.8, 220.45L403.38, 219.5L406.96, 218.73L410.51, 218.22L414, 218L416.23, 218.02L418.97, 218.08L422.01, 218.1L425.18, 218.02L428.29, 217.77L431.15, 217.27L433.58, 216.46L434.58, 215.91L435.4, 215.26L436.08, 214.44L436.6, 213.49L437.26, 211.25L437.47, 208.68L437.34, 205.94L436.98, 203.15L436.5, 200.47L436.01, 198.04L435.61, 196L434.58, 189.33L433.91, 182.32L433.8, 178.8L433.88, 175.31L434.19, 171.92L434.77, 168.64L435.64, 165.53L436.84, 162.64L438.42, 159.99L440.39, 157.64L442.8, 155.62L445.68, 153.98L449.07, 152.76L453, 152Z"/><path stroke="black" fill="none" stroke-width="1" d="M172.14, 170.91L175.49, 172.21L178.5, 174.17L179.83, 175.39L181.02, 176.77L182.05, 178.31L182.91, 180L183.51, 181.74L183.9, 183.56L184.18, 187.39L184.1, 191.27L184, 195L191.53, 195.2L195.33, 195.07L198.96, 194.44L201.41, 193.37L203.81, 191.99L205.03, 191.39L206.27, 190.96L207.56, 190.8L208.91, 190.98L210.97, 191.75L212.5, 192.76L213.54, 193.98L214.13, 195.37L214.32, 196.9L214.15, 198.53L213.68, 200.22L212.93, 201.96L210.84, 205.39L208.22, 208.56L205.45, 211.17L204.11, 212.19L202.87, 212.98L200.79, 213.74L198.53, 214.03L194, 214L188.49, 213.85L183, 213.5L177.51, 213.16L172, 213L173.33, 215.34L175.11, 217.41L176.17, 218.25L177.34, 218.92L178.62, 219.4L180, 219.64L181.79, 219.63L183.61, 219.44L187.18, 219.14L188.84, 219.34L190.36, 219.97L191.71, 221.2L192.3, 222.08L192.84, 223.17L193.12, 224.2L193.15, 225.21L192.59, 227.19L191.53, 229.04L190.33, 230.71L185.08, 237.81L179.57, 244.7L178.22, 246.15L176.7, 247.39L174.97, 248.14L174, 248.25L172.98, 248.15L171.53, 247.76L170.35, 247.26L169.42, 246.65L168.69, 245.94L167.75, 244.3L167.29, 242.42L166.75, 238.36L166.19, 236.37L165.09, 234.53L163.51, 232.82L161.76, 231.2L157.89, 228.18L153.85, 225.35L150, 222.59L148.13, 221.06L146.12, 219.41L144.01, 217.93L141.83, 216.93L140.82, 216.74L139.85, 216.78L137.98, 217.27L136.12, 217.84L134.17, 217.99L133.14, 217.75L131.98, 217.26L129.63, 215.74L128.58, 214.79L127.71, 213.77L127.1, 212.72L126.82, 211.67L126.84, 210.74L127.06, 209.84L127.9, 208.1L130.18, 205.01L134.76, 199.08L139.52, 193.29L143.74, 187.83L147.95, 182.18L150.18, 179.47L152.57, 176.94L155.16, 174.66L158, 172.7L159.65, 171.84L161.37, 171.17L164.94, 170.37L168.57, 170.29Z"/><path stroke="black" fill="none" stroke-width="1" d="M165.65, 189.68L166.52, 190.18L167.11, 190.96L167.45, 191.96L167.56, 193.14L167.46, 194.46L167.17, 195.86L166.13, 198.73L164.61, 201.38L163.73, 202.51L162.8, 203.44L161.84, 204.14L160.87, 204.55L159.72, 204.65L158.5, 204.42L157.3, 203.92L156.17, 203.18L155.19, 202.26L154.44, 201.21L153.99, 200.08L153.92, 198.91L154.29, 197.51L155.03, 196.05L156.07, 194.61L157.33, 193.23L158.72, 191.99L160.19, 190.94L161.64, 190.15L162.99, 189.67L164.48, 189.49Z"/><path stroke="black" fill="none" stroke-width="1" d="M443.51, 228.3L452, 228.91L454.7, 229.03L457.1, 229.27L458.18, 229.59L459.19, 230.11L460.13, 230.89L461, 232L445.87, 232.17L438.27, 232.49L430.69, 233.04L423.15, 233.89L415.67, 235.12L408.28, 236.78L401, 238.94L392.39, 242.12L383.92, 245.61L375.49, 249.14L366.96, 252.45L363.94, 253.76L361.12, 255.18L358.24, 256.37L356.68, 256.77L355, 257L357.6, 253.91L360.64, 251.13L364.03, 248.62L367.68, 246.38L371.49, 244.37L375.37, 242.58L379.24, 240.99L383, 239.58L395.76, 235.15L402.13, 233.19L408.52, 231.46L414.98, 230.03L421.52, 228.94L428.19, 228.24L435, 228Z"/><path stroke="black" fill="none" stroke-width="1" d="M468, 232L466.71, 232.39L465.76, 232.4L464.93, 231.96L464, 231Z"/><path stroke="black" fill="none" stroke-width="1" d="M504.75, 240.65L503.26, 242.22L499.79, 245.03L495.92, 247.33L492, 249L491, 248L492.13, 245.78L493.52, 243.91L495.15, 242.38L497, 241.16L499.03, 240.23L501.23, 239.57L503.56, 239.17L506, 239Z"/><path stroke="black" fill="none" stroke-width="1" d="M430.69, 242.28L431.58, 242.55L432.4, 243.03L433.28, 244.05L433.84, 245.39L434.15, 246.96L434.26, 248.67L434.15, 252.12L434.05, 253.68L434, 255L434.08, 256.43L434.29, 258L434.94, 261.44L435.67, 265.11L436.17, 268.77L436.24, 270.52L436.14, 272.19L435.84, 273.75L435.3, 275.15L434.47, 276.39L433.33, 277.42L431.83, 278.23L429.95, 278.77L424.7, 279.5L419.37, 279.75L413.97, 279.67L408.54, 279.41L397.68, 278.92L392.31, 278.98L387, 279.42L377.84, 280.5L368.54, 281.31L359.22, 281.82L350, 282L350.49, 280.08L351.26, 278.32L352.25, 276.7L353.42, 275.19L356.09, 272.34L358.85, 269.54L361.36, 267.05L364.02, 264.73L366.83, 262.59L369.78, 260.6L375.99, 257.07L382.56, 254.07L389.36, 251.53L396.28, 249.39L403.2, 247.56L410, 245.99L417.51, 244.52L425, 243L426.81, 242.56L428.76, 242.22Z"/><path stroke="black" fill="none" stroke-width="1" d="M462.66, 241.99L464.62, 242.28L466.42, 242.82L467.9, 243.6L468.93, 244.59L469.37, 245.48L469.55, 246.43L469.3, 248.41L468.52, 250.33L467.52, 251.98L465.96, 254L464.22, 255.71L462.33, 257.15L460.29, 258.34L458.12, 259.29L455.84, 260.04L451, 261L451.18, 259.07L451.5, 256.83L452.53, 251.9L453.24, 249.44L454.08, 247.16L455.05, 245.18L456.14, 243.6L457.28, 242.75L458.85, 242.21L460.69, 241.96Z"/><path stroke="black" fill="none" stroke-width="1" d="M732.98, 246.38L736.46, 247.01L739.85, 248.03L743.12, 249.46L746.24, 251.3L749.18, 253.55L751.91, 256.22L754.39, 259.33L755.51, 261.08L756.46, 262.94L757.97, 266.86L759.11, 270.92L760.05, 274.96L760.56, 276.49L761.31, 278.07L763.03, 281.3L763.75, 282.93L764.22, 284.57L764.3, 286.21L763.87, 287.83L763.24, 288.94L762.42, 289.98L760.39, 291.88L758.13, 293.57L756, 295.08L750.42, 299.23L748.62, 300.27L746.79, 300.78L745.03, 300.78L743.39, 300.29L741.94, 299.34L740.75, 297.96L739.89, 296.17L739.44, 294L739.42, 292.54L739.65, 291.13L740.64, 288.39L742.09, 285.74L743.66, 283.1L745.01, 280.44L745.81, 277.68L745.89, 276.25L745.71, 274.78L745.23, 273.25L744.39, 271.67L742.69, 269.48L740.73, 267.78L738.56, 266.56L736.22, 265.78L733.77, 265.42L731.24, 265.44L728.68, 265.83L726.15, 266.55L723.68, 267.57L721.33, 268.88L719.15, 270.43L717.17, 272.21L715.45, 274.18L714.03, 276.32L712.96, 278.61L712.28, 281L712.09, 283.53L712.46, 285.95L713.29, 288.24L714.53, 290.36L716.09, 292.3L717.91, 294.04L719.9, 295.55L722, 296.82L724.08, 297.74L726.32, 298.65L728.39, 299.8L729.26, 300.54L729.96, 301.42L730.48, 302.61L730.7, 303.9L730.67, 305.27L730.45, 306.67L729.71, 309.46L729, 312L724.2, 311.43L719.59, 310.18L715.22, 308.33L711.13, 305.92L707.39, 303.03L704.03, 299.72L701.12, 296.05L698.69, 292.09L696.81, 287.89L695.53, 283.52L694.88, 279.05L694.94, 274.53L695.74, 270.04L696.44, 267.82L697.34, 265.62L698.46, 263.47L699.79, 261.36L701.35, 259.3L703.15, 257.3L705.95, 254.69L708.96, 252.42L712.13, 250.48L715.45, 248.89L718.87, 247.65L722.37, 246.78L725.91, 246.27L729.46, 246.13Z"/><path stroke="black" fill="none" stroke-width="1" d="M166.05, 251.52L167.13, 251.79L168.11, 252.27L168.99, 252.98L169.74, 253.95L170.35, 255.23L170.64, 256.41L170.65, 257.64L170.08, 260.13L169.04, 262.53L167.93, 264.71L163.72, 273.75L160, 283L157.07, 282.65L154.37, 281.97L151.74, 281.05L149, 280L149, 273L147.58, 273.33L146.23, 273.86L143.82, 275.43L141.86, 277.53L140.48, 279.99L139.79, 282.64L139.74, 283.98L139.9, 285.3L140.29, 286.59L140.93, 287.81L141.83, 288.96L143, 290L143.92, 288.51L145.24, 287.44L146.81, 286.81L148.52, 286.61L150.25, 286.86L151.85, 287.55L153.22, 288.7L154.21, 290.3L154.66, 292.35L154.48, 294.6L153.82, 296.99L152.82, 299.42L150.35, 304.11L149.17, 306.21L148.21, 308.04L147.46, 309.6L146.58, 311.14L145.43, 312.41L144.71, 312.87L143.87, 313.18L142.66, 313.32L141.4, 313.18L138.8, 312.32L136.28, 311.1L134, 310L134, 307.57L133.63, 305.46L132.96, 303.59L132, 301.9L130.82, 300.32L129.43, 298.77L126.24, 295.49L108, 276.73L105.76, 274.59L103.27, 272.16L101.06, 269.54L100.24, 268.19L99.68, 266.83L99.44, 265.08L99.63, 263.22L100.13, 261.28L100.85, 259.31L102.57, 255.46L103.37, 253.66L104, 252L110.11, 252.11L116.24, 252.4L128.52, 253.23L140.79, 253.94L146.91, 254.08L153, 253.98L155.04, 253.67L157.38, 253.02L159.89, 252.28L162.44, 251.67L164.9, 251.43Z"/><path stroke="black" fill="none" stroke-width="1" d="M484.34, 253.36L483.45, 254.63L482.36, 255.81L481.08, 256.89L478.1, 258.81L474.69, 260.41L471.08, 261.71L467.45, 262.72L464.03, 263.48L461, 264L461, 260L463.12, 258.74L465.12, 257.2L467.12, 255.73L469.29, 254.68L471.16, 254.41L473.08, 254.54L475, 254.74L476.91, 254.69L478.96, 254.16L480.95, 253.39L482.94, 252.59L485, 252Z"/><path stroke="black" fill="none" stroke-width="1" d="M491.03, 257.4L491.05, 258L491.04, 259.64L490.92, 261.6L490.65, 263.57L490.16, 265.24L489.83, 265.87L489.43, 266.3L488.95, 266.51L488.39, 266.44L487.75, 266.06L487.01, 265.34L486.49, 264.52L486.15, 263.55L485.88, 261.33L485.92, 259.03L486, 257L491, 257Z"/><path stroke="black" fill="none" stroke-width="1" d="M513.89, 264.31L514.87, 266.81L515.55, 269.35L515.67, 270.59L515.58, 271.79L515.3, 272.72L514.82, 273.62L513.38, 275.28L511.41, 276.78L509.11, 278.07L506.64, 279.16L504.18, 280.02L501.91, 280.64L500, 281L500.71, 279.03L501.62, 277.31L502.72, 275.68L504, 274L502.33, 274.33L500.78, 274.83L497.87, 276.18L495.03, 277.68L492, 279L492.79, 277L493.86, 275.31L495.18, 273.88L496.68, 272.63L500.05, 270.41L503.56, 268.13L508.04, 264.61L510.35, 263.1L513, 262Z"/><path stroke="black" fill="none" stroke-width="1" d="M129, 272L128, 276L126.73, 274.85L125.72, 273.73L124.85, 272.49L124, 271Z"/><path stroke="black" fill="none" stroke-width="1" d="M530.63, 281.9L530.07, 282.79L528.44, 284.52L526.29, 286.16L523.8, 287.64L521.15, 288.92L518.51, 289.94L516.07, 290.65L514, 291L515.03, 288.85L516.61, 286.93L518.64, 285.25L520.97, 283.82L523.5, 282.66L526.1, 281.8L528.64, 281.24L531, 281Z"/><path stroke="black" fill="none" stroke-width="1" d="M420.18, 283.3L428.24, 283.65L436.2, 284.27L444, 285.21L452.47, 286.3L460.98, 287.23L477.98, 289.19L481.29, 289.88L484.42, 290.81L487.58, 291.63L491, 292L491, 294L486.92, 293.74L482.96, 293.13L479.02, 292.48L475, 292.04L467.01, 291.74L458.99, 291.57L450.98, 291.36L443, 290.91L438.22, 290.35L433.56, 289.67L428.87, 289.13L424, 289.04L415.23, 289.59L406.49, 290.37L389, 291.91L378.51, 292.47L367.99, 292.88L357.48, 293.36L347, 294.17L335.02, 295.6L323.03, 297.18L311.03, 298.47L305.02, 298.86L299, 299L299, 297L301.19, 296.69L303.33, 296.18L307.51, 294.83L311.69, 293.39L316, 292.32L331.91, 289.67L347.88, 287.21L363.91, 285.23L371.95, 284.52L380, 284.04L395.86, 283.42L412.07, 283.17Z"/><path stroke="black" fill="none" stroke-width="1" d="M542, 288L545.73, 286.84L547.65, 286.4L549.51, 286.19L551.25, 286.34L552.79, 286.95L554.06, 288.13L554.58, 288.97L555, 290L549.8, 290.77L544.54, 291.27L534, 292L534.16, 289.99L534.51, 288.31L535.07, 286.95L535.88, 285.88L536.95, 285.07L538.31, 284.51L539.99, 284.16L542, 284Z"/><path stroke="black" fill="none" stroke-width="1" d="M469.16, 294.1L472.45, 294.72L475.47, 295.36L478, 295.83L480.35, 296.14L482.45, 296.56L484.33, 297.41L485.19, 298.09L486, 299L482.17, 299.19L478.41, 299.19L470.99, 298.81L463.58, 298.27L456, 298L456.63, 296.69L457.48, 295.65L458.53, 294.85L459.75, 294.28L461.12, 293.89L462.6, 293.69L465.8, 293.69Z"/><path stroke="black" fill="none" stroke-width="1" d="M557, 313L548, 312L548.16, 310.2L548.46, 308.64L548.93, 307.32L549.61, 306.23L550.52, 305.36L551.7, 304.7L553.18, 304.25L555, 304Z"/><path stroke="black" fill="none" stroke-width="1" d="M570.01, 307.53L571.57, 308.36L572.75, 309.47L573.6, 310.83L574.18, 312.39L574.57, 314.13L575, 318L573.32, 317.28L571.94, 316.3L570.83, 315.09L569.96, 313.7L569.27, 312.17L568.75, 310.51L568, 307Z"/><path stroke="black" fill="none" stroke-width="1" d="M84.98, 313.01L87.46, 313.38L88.62, 313.76L89.68, 314.32L90.5, 315L91.12, 315.8L92.03, 317.63L92.92, 319.47L93.53, 320.29L94.32, 320.99L96.05, 321.84L98.03, 322.36L102, 323L104.55, 323.56L107.48, 324.29L113.93, 325.81L117.21, 326.4L120.36, 326.73L123.25, 326.71L125.77, 326.23L126.59, 325.86L127.24, 325.38L128.13, 324.13L128.65, 322.62L129, 321L130.27, 321.04L131.71, 321.08L134.85, 321.34L136.39, 321.63L137.81, 322.08L139.03, 322.72L139.97, 323.6L140.68, 325.04L140.93, 326.7L140.89, 328.4L140.71, 330L139.4, 337.51L137.92, 345L137.65, 346.86L137.31, 348.86L136.76, 350.77L135.84, 352.4L135.12, 353.05L134.25, 353.54L132.17, 354.18L129.97, 354.58L128, 355L129.83, 355.52L131.33, 356.18L132.53, 356.96L133.44, 357.85L134.09, 358.84L134.48, 359.91L134.65, 361.05L134.61, 362.24L133.97, 364.72L132.72, 367.25L131.01, 369.72L129, 372L133, 372L131.89, 381.54L130.2, 391L129.86, 392.84L129.41, 394.78L128.66, 396.57L128.12, 397.33L127.44, 397.97L126.32, 398.58L125.07, 398.92L123.72, 399.03L122.32, 398.96L119.52, 398.52L117, 398L117, 391L112.37, 390.6L107.75, 389.9L98.53, 387.99L89.3, 386.08L84.66, 385.39L80, 385L79.52, 387.02L78.49, 388.72L77.04, 390.05L75.3, 390.92L73.4, 391.27L71.48, 391.02L69.65, 390.1L68.81, 389.36L68.04, 388.44L67.44, 387.17L67.2, 385.68L67.23, 384.04L67.47, 382.32L68.24, 378.91L68.63, 377.36L68.92, 376L69.17, 374.24L69.4, 372.25L69.99, 367.93L70.44, 365.79L71.03, 363.8L71.82, 362.04L72.86, 360.6L74.37, 359.54L76.2, 358.95L78.15, 358.65L80, 358.42L89.98, 357.37L100, 357L98.29, 355.25L96.36, 353.73L94.27, 352.39L92.07, 351.2L87.49, 349.06L83, 346.94L79.29, 345.14L77.54, 344.01L76.19, 342.53L75.72, 341.57L75.46, 340.54L75.37, 338.34L75.65, 336.11L76, 334L77.85, 323.48L80, 313L82.42, 312.96Z"/><path stroke="black" fill="none" stroke-width="1" d="M276, 323L276, 326L273.81, 325.98L271.86, 325.89L270.18, 325.63L268.77, 325.12L267.64, 324.29L266.79, 323.04L266.24, 321.31L266, 319Z"/><path stroke="black" fill="none" stroke-width="1" d="M436.06, 318.76L439.26, 318.92L442, 319L449.6, 319.2L457.13, 319.77L464.58, 320.69L471.98, 321.94L479.33, 323.48L486.63, 325.3L493.91, 327.36L501.17, 329.64L506.22, 331.14L511.52, 332.89L514.04, 334L516.35, 335.35L518.36, 337L520, 339L514.86, 338.8L509.69, 338.26L504.51, 337.45L499.35, 336.44L489.08, 334.05L479, 331.59L467.86, 329.3L456.61, 327.5L445.3, 326.05L434, 324.83L426.03, 323.71L422.06, 323.21L418, 323L418.85, 321.94L419.91, 321.06L421.13, 320.35L422.51, 319.78L425.63, 319.04L429.05, 318.7L432.59, 318.65Z"/><path stroke="black" fill="none" stroke-width="1" d="M753.82, 320.03L757, 320.52L759.91, 321.29L762.65, 322.3L765.2, 323.54L767.58, 324.99L769.79, 326.64L771.81, 328.47L773.65, 330.47L775.31, 332.61L776.79, 334.88L778.08, 337.27L779.19, 339.76L780.11, 342.33L781.4, 347.64L781.93, 353.1L781.7, 358.55L781.29, 361.24L780.69, 363.88L779.9, 366.45L778.91, 368.95L777.72, 371.35L776.33, 373.63L774.75, 375.79L772.97, 377.8L770.98, 379.64L768.79, 381.31L766.4, 382.79L763.81, 384.05L761.01, 385.09L758, 385.88L752.2, 386.74L749.26, 386.88L746.34, 386.79L743.43, 386.47L740.56, 385.9L737.74, 385.07L735, 383.95L731.96, 382.27L729.18, 380.19L726.66, 377.78L724.42, 375.06L722.46, 372.08L720.79, 368.88L719.41, 365.52L718.35, 362.02L717.59, 358.43L717.16, 354.8L717.05, 351.16L717.29, 347.56L717.87, 344.05L718.8, 340.66L720.09, 337.44L721.75, 334.42L723.79, 331.61L726.1, 329.14L728.64, 327L731.39, 325.16L734.32, 323.61L737.42, 322.33L740.65, 321.31L744, 320.51L747.19, 320.04L750.5, 319.88Z"/><path stroke="black" fill="none" stroke-width="1" d="M563.77, 324.34L565.61, 324.87L569.43, 326.4L573.29, 328.51L577.01, 331.08L580.41, 334.01L583.33, 337.21L585.58, 340.57L586.41, 342.28L587, 344L585.23, 343.78L583.36, 343.36L579.44, 341.97L575.43, 339.94L571.58, 337.37L568.08, 334.39L565.18, 331.09L564.01, 329.36L563.08, 327.59L562.4, 325.8L562, 324Z"/><path stroke="black" fill="none" stroke-width="1" d="M240.2, 328.39L243.35, 329.09L249.56, 331L255.74, 332.91L258.85, 333.61L262, 334L262, 336L257.51, 335.61L252.94, 334.73L244, 332.45L241.62, 331.9L239.62, 331.25L238.78, 330.76L238.06, 330.09L237.46, 329.18L237, 328Z"/><path stroke="black" fill="none" stroke-width="1" d="M756.96, 340.93L759.33, 341.41L761.5, 342.16L763.38, 343.23L765.35, 344.89L766.79, 346.6L767.73, 348.35L768.21, 350.1L768.28, 351.86L767.96, 353.59L767.32, 355.28L766.37, 356.9L765.17, 358.44L763.76, 359.89L762.17, 361.21L760.44, 362.4L756.75, 364.28L754.86, 364.94L753, 365.38L748.33, 365.99L745.89, 366.07L743.45, 365.94L741.06, 365.56L738.78, 364.88L736.67, 363.84L734.77, 362.4L733.37, 360.86L732.38, 359.26L731.77, 357.61L731.51, 355.94L731.57, 354.27L731.93, 352.62L732.55, 351L733.4, 349.44L734.45, 347.95L735.68, 346.56L738.53, 344.15L741.71, 342.35L743.36, 341.73L745, 341.33L747.13, 341L749.47, 340.76L754.47, 340.68Z"/><path stroke="black" fill="none" stroke-width="1" d="M112.85, 343.46L115.33, 343.77L120.32, 344.56L122.73, 344.87L125, 345L125, 352L122.48, 351.41L120.04, 350.58L115.34, 348.47L110.72, 346.12L106, 344L108.13, 343.49L110.43, 343.34Z"/><path stroke="black" fill="none" stroke-width="1" d="M412.13, 345.54L426.25, 346.33L440.33, 347.63L454.35, 349.35L468.25, 351.39L482, 353.68L492.24, 355.53L502.55, 357.59L512.87, 359.93L523.13, 362.61L533.26, 365.7L543.19, 369.26L552.85, 373.37L562.17, 378.09L566.67, 380.63L571.27, 383.35L580.55, 389.34L585.12, 392.62L589.58, 396.08L593.89, 399.75L597.98, 403.61L601.81, 407.67L605.32, 411.93L608.48, 416.41L611.21, 421.09L613.49, 425.99L615.24, 431.1L616.43, 436.44L617, 442L614.98, 440.89L613.5, 439.59L612.43, 438.13L611.64, 436.52L610.43, 432.94L609.75, 431.01L608.87, 429.02L606.46, 424.61L603.69, 420.21L600.62, 416.02L597.29, 412.27L594.16, 409.49L590.84, 406.67L589.29, 405.17L587.92, 403.58L586.79, 401.86L586, 400L584.3, 399.63L582.77, 399.05L580.04, 397.46L577.47, 395.52L574.73, 393.55L571.12, 391.61L567.39, 389.72L565.66, 388.63L564.14, 387.35L562.89, 385.83L562, 384L558.86, 383.63L555.88, 382.91L553.01, 381.92L550.22, 380.74L544.7, 378.12L539, 375.7L535.35, 374.51L531.56, 373.49L523.7, 371.88L515.75, 370.78L508, 370.09L503.43, 369.89L498.9, 369.9L489.93, 370.37L472, 371.91L461.76, 372.37L441.24, 372.65L431, 373.09L410.01, 374.79L399.5, 375.56L389, 376L390.69, 373.89L392.7, 372.25L394.98, 371.04L397.49, 370.16L400.18, 369.56L403.01, 369.16L408.86, 368.69L414.67, 368.19L417.43, 367.76L420.05, 367.12L422.46, 366.19L424.62, 364.91L426.48, 363.2L428, 361L420.99, 359.82L413.92, 358.89L406.81, 358.18L399.67, 357.68L385.33, 357.13L371, 357L368.65, 357.05L365.97, 357.12L363.1, 357.11L360.23, 356.91L357.52, 356.41L355.13, 355.5L354.11, 354.85L353.23, 354.06L352.52, 353.12L352, 352L356.5, 350.83L360.98, 349.41L365.47, 348.08L370, 347.18L376.97, 346.43L383.97, 345.88L398.02, 345.36Z"/><path stroke="black" fill="none" stroke-width="1" d="M120, 376L115.22, 375.84L110.46, 375.43L101, 374L103.25, 373.14L105.67, 372.46L110.8, 371.58L116.04, 371.16L121, 371Z"/><path stroke="black" fill="none" stroke-width="1" d="M359.43, 380.51L360.75, 381.19L363.08, 383.04L365.02, 385.4L366.65, 388.13L368.01, 391.09L369.15, 394.15L370.13, 397.17L371, 400L367.79, 398.78L365.08, 397.05L362.85, 394.89L361.06, 392.36L359.71, 389.54L358.76, 386.49L358.2, 383.29L358, 380Z"/><path stroke="black" fill="none" stroke-width="1" d="M466.77, 402.86L469.02, 402.95L471, 403L477.02, 402.94L483.11, 402.99L489.14, 403.52L492.1, 404.09L495, 404.91L497.05, 405.8L498.9, 406.95L502.26, 409.7L505.52, 412.47L507.25, 413.65L509.13, 414.57L510.37, 414.9L511.69, 415.01L514.5, 414.78L517.33, 414.3L520, 414L520.22, 417.33L520.67, 418.9L521.6, 420.31L523.32, 421.76L525.35, 422.94L529.7, 425.03L531.69, 426.23L533.32, 427.69L533.96, 428.58L534.45, 429.58L534.76, 430.72L534.89, 432.02L534.81, 434.11L534.51, 436.17L533.32, 440.2L531.47, 444.06L529.08, 447.72L526.3, 451.13L523.25, 454.26L520.08, 457.07L516.92, 459.52L510.42, 464.62L507.09, 467.08L503.58, 469.21L497.64, 472.03L491.6, 474.42L485.47, 476.46L479.27, 478.21L466.7, 481.2L454, 484L453.39, 482.26L453, 480.5L452.58, 476.99L452.22, 473.49L451.41, 470.04L450.44, 467.97L448, 464.09L447, 462L448.83, 460.78L450.2, 459.54L451.22, 458.03L452, 456L445, 456L445.75, 454.19L446.82, 452.53L449.46, 449.49L450.78, 447.98L451.95, 446.41L452.84, 444.71L453.34, 442.83L453.34, 441.24L452.99, 439.74L451.7, 436.9L450.35, 434.06L449.92, 432.58L449.82, 431.02L450.06, 429.42L450.56, 427.94L451.96, 425.12L453.28, 422.24L453.68, 420.68L453.79, 419L453.6, 417.44L453.25, 415.72L452.45, 412.08L452.24, 410.27L452.28, 408.54L452.7, 406.96L453.61, 405.59L455.22, 404.36L457.2, 403.54L459.46, 403.06L461.88, 402.83Z"/><path stroke="black" fill="none" stroke-width="1" d="M735.24, 406.47L737.03, 407.06L738.58, 407.99L739.89, 409.2L740.94, 410.64L741.73, 412.26L742.24, 414L742.46, 415.81L742.38, 417.62L741.99, 419.39L741.27, 421.06L740.23, 422.57L738.84, 423.86L737.1, 424.9L734.99, 425.61L732.73, 425.9L730.69, 425.73L728.88, 425.16L727.32, 424.23L726.01, 423.01L724.96, 421.56L724.19, 419.93L723.69, 418.17L723.49, 416.35L723.58, 414.52L723.99, 412.74L724.72, 411.06L725.77, 409.55L727.17, 408.25L728.91, 407.23L731.02, 406.55L733.23, 406.28Z"/><path stroke="black" fill="none" stroke-width="1" d="M314.16, 413.4L315.89, 416.04L317.48, 418.79L319.22, 421.52L327.94, 433.67L332.43, 439.66L337.1, 445.49L340.41, 449.3L343.93, 453.06L347.67, 456.76L351.59, 460.38L355.68, 463.88L359.94, 467.26L364.34, 470.48L368.87, 473.53L373.52, 476.38L378.27, 479.02L383.1, 481.41L388, 483.54L392.95, 485.39L397.95, 486.93L402.97, 488.14L408, 489L408, 492L401.82, 491.62L395.76, 490.57L389.82, 488.93L384, 486.77L380.05, 484.97L376.11, 483.04L372.11, 481.29L368, 480L368, 477L365.58, 476.43L363.26, 475.5L361.03, 474.28L358.89, 472.84L354.82, 469.56L350.98, 466.25L345.52, 461.37L340.33, 456.28L330.23, 445.78L325.26, 440.66L322.9, 438.08L320.69, 435.43L318.71, 432.64L317.01, 429.68L315.65, 426.48L314.69, 423L313.76, 419.99L312.61, 417.01L311.83, 414.03L311.76, 412.52L312, 411Z"/><path stroke="black" fill="none" stroke-width="1" d="M563, 424L562.2, 427.7L561.51, 429.51L560.62, 431.21L559.52, 432.76L558.22, 434.11L556.71, 435.21L555, 436L555.5, 432.74L556.24, 429.44L558, 423Z"/><path stroke="black" fill="none" stroke-width="1" d="M552.43, 425.66L555, 426L554.28, 427.66L553.29, 429.02L552.08, 430.1L550.68, 430.97L547.47, 432.18L544, 433L544.16, 431.43L544.38, 430.08L544.66, 428.93L544.99, 427.98L545.85, 426.58L547, 425.77L548.46, 425.43L550.26, 425.43Z"/><path stroke="black" fill="none" stroke-width="1" d="M596.19, 431.31L596.42, 431.42L596.33, 431.67L596.14, 431.7L595.81, 431.69L595.58, 431.58L595.67, 431.33L595.86, 431.3Z"/><path stroke="black" fill="none" stroke-width="1" d="M549.66, 449.76L549.14, 451.37L547.65, 454.22L545.64, 456.64L543.24, 458.76L540.6, 460.68L537.84, 462.52L535.08, 464.39L532.46, 466.4L528.2, 469.84L523.8, 473.12L519.27, 476.21L514.61, 479.12L509.83, 481.83L504.94, 484.35L499.96, 486.66L494.88, 488.76L489.72, 490.63L484.49, 492.28L479.19, 493.69L473.83, 494.86L468.42, 495.79L462.98, 496.46L457.5, 496.86L452, 497L452.9, 495.81L454, 494.78L455.27, 493.9L456.69, 493.15L459.89, 491.97L463.41, 491.11L470.67, 489.88L474.04, 489.24L477, 488.41L490.32, 483.41L503.22, 477.96L509.53, 474.97L515.74, 471.74L521.86, 468.24L527.91, 464.42L530.53, 462.41L533.13, 460.01L538.36, 454.82L541.07, 452.39L543.89, 450.32L546.85, 448.8L548.4, 448.3L550, 448Z"/><path stroke="black" fill="none" stroke-width="1" d="M555.96, 531.29L554.9, 532.1L553.65, 532.61L552, 533L553.04, 531.71L554.1, 530.9L555.35, 530.39L557, 530Z"/><path stroke="black" fill="none" stroke-width="1" d="M490.14, 532.24L492.02, 532.73L493.73, 533.41L495.33, 534.24L498.47, 536.13L500.15, 537.09L502, 538L502, 542L499.9, 541.74L497.75, 541.11L495.63, 540.15L493.6, 538.92L491.75, 537.45L490.15, 535.77L488.88, 533.94L488, 532Z"/><path stroke="black" fill="none" stroke-width="1" d="M524.77, 546.13L524.2, 548.02L523.33, 549.7L522.19, 551.18L520.81, 552.47L519.22, 553.58L517.45, 554.53L515.55, 555.33L511.44, 556.54L507.14, 557.32L502.91, 557.77L499, 558L499.66, 552.51L500, 547L503.23, 546.87L506.37, 546.53L512.49, 545.5L518.62, 544.47L521.76, 544.13L525, 544Z"/><path stroke="black" fill="none" stroke-width="1" d="M517.07, 569.29L518.56, 569.63L520.18, 570.2L522, 571L521.61, 572.49L521.15, 573.72L520.62, 574.7L520.01, 575.45L519.35, 576L518.62, 576.36L517.01, 576.6L515.2, 576.33L513.25, 575.7L509, 574L509, 570L510.93, 569.62L512.64, 569.33L515.63, 569.14Z"/><path stroke="black" fill="none" stroke-width="1" d="M530, 595L529.48, 596.93L528.75, 598.65L527.81, 600.13L526.67, 601.39L525.32, 602.4L523.75, 603.18L521.98, 603.72L520, 604L520.41, 601.95L521.05, 600.08L521.93, 598.41L523.04, 597.02L524.4, 595.93L526.01, 595.2L527.88, 594.87Z"/><path stroke="black" fill="none" stroke-width="1" d="M537.14, 619.12L537.52, 622.08L538.15, 625L539, 628L541.02, 626.97L542.94, 625.84L544.89, 624.8L547, 624L546.14, 627.59L545.46, 629.25L544.58, 630.78L543.51, 632.15L542.23, 633.33L540.73, 634.29L539, 635L538.15, 633.72L537.21, 632.79L535.14, 631.56L532.89, 630.56L531.74, 629.92L530.59, 629.06L529.6, 627.96L528.67, 626.51L527.81, 624.81L527.04, 622.95L525.79, 619.18L525.33, 617.47L525, 616L528.13, 616.48L531.01, 616.75L533.89, 616.65L537, 616Z"/></svg>